PowerhouseFilarQuarto-Regular.ufo
<glyph name="exclam" format="2">
  <advance width="350"/>
  <unicode hex="0021"/>
  <outline>
    <contour>
      <point x="226" y="700" type="line"/>
      <point x="123" y="700" type="line"/>
      <point x="146" y="227" type="line"/>
      <point x="203" y="227" type="line"/>
    </contour>
    <component base="period" identifier="652786C2"/>
  </outline>
</glyph>
<glyph name="quotedbl" format="2">
  <advance width="600"/>
  <unicode hex="0022"/>
  <outline>
    <contour>
      <point x="156" y="700" type="line"/>
      <point x="177" y="412" type="line"/>
      <point x="244" y="412" type="line"/>
      <point x="265" y="700" type="line"/>
    </contour>
    <contour>
      <point x="336" y="700" type="line"/>
      <point x="357" y="412" type="line"/>
      <point x="424" y="412" type="line"/>
      <point x="445" y="700" type="line"/>
    </contour>
  </outline>
</glyph>
<glyph name="numbersign" format="2">
  <advance width="680"/>
  <unicode hex="0023"/>
  <outline>
    <contour>
      <point x="347" y="700" type="line"/>
      <point x="268" y="700" type="line"/>
      <point x="102" y="0" type="line"/>
      <point x="181" y="0" type="line"/>
    </contour>
    <contour>
      <point x="648" y="507" type="line"/>
      <point x="83" y="507" type="line"/>
      <point x="83" y="435" type="line"/>
      <point x="648" y="435" type="line"/>
    </contour>
    <contour>
      <point x="569" y="700" type="line"/>
      <point x="490" y="700" type="line"/>
      <point x="324" y="0" type="line"/>
      <point x="403" y="0" type="line"/>
    </contour>
    <contour>
      <point x="597" y="293" type="line"/>
      <point x="32" y="293" type="line"/>
      <point x="32" y="221" type="line"/>
      <point x="597" y="221" type="line"/>
    </contour>
  </outline>
</glyph>
<glyph name="hyphen" format="2">
  <advance width="600"/>
  <unicode hex="002D"/>
  <outline>
    <contour>
      <point x="147" y="257" type="line"/>
      <point x="453" y="257" type="line"/>
      <point x="453" y="335" type="line"/>
      <point x="147" y="335" type="line"/>
    </contour>
  </outline>
</glyph>
<glyph name="period" format="2">
  <advance width="350"/>
  <unicode hex="002E"/>
  <outline>
    <contour>
      <point x="118" y="134" type="line"/>
      <point x="118" y="0" type="line"/>
      <point x="232" y="0" type="line"/>
      <point x="232" y="134" type="line"/>
    </contour>
  </outline>
</glyph>
<glyph name="slash" format="2">
  <advance width="600"/>
  <unicode hex="002F"/>
  <outline>
    <contour>
      <point x="456" y="745" type="line"/>
      <point x="28" y="-113" type="line"/>
      <point x="119" y="-113" type="line"/>
      <point x="547" y="745" type="line"/>
    </contour>
  </outline>
</glyph>
<glyph name="one" format="2">
  <advance width="600"/>
  <unicode hex="0031"/>
  <outline>
    <contour>
      <point x="290" y="700" type="line"/>
      <point x="290" y="595"/>
      <point x="265" y="555"/>
      <point x="84" y="555" type="curve"/>
      <point x="84" y="490" type="line"/>
      <point x="336" y="490" type="line"/>
      <point x="279" y="540" type="line"/>
      <point x="279" y="0" type="line"/>
      <point x="369" y="0" type="line"/>
      <point x="369" y="700" type="line"/>
    </contour>
    <contour>
      <point x="84" y="0" type="line"/>
      <point x="539" y="0" type="line"/>
      <point x="539" y="75" type="line"/>
      <point x="84" y="75" type="line"/>
    </contour>
  </outline>
</glyph>
<glyph name="two" format="2">
  <advance width="600"/>
  <unicode hex="0032"/>
  <outline>
    <contour>
      <point x="537" y="0" type="line"/>
      <point x="537" y="77" type="line"/>
      <point x="131" y="77" type="line"/>
      <point x="131" y="27" type="line"/>
      <point x="375" y="230"/>
      <point x="528" y="356"/>
      <point x="528" y="500" type="curve" smooth="yes"/>
      <point x="528" y="602"/>
      <point x="457" y="712"/>
      <point x="304" y="712" type="curve" smooth="yes"/>
      <point x="167" y="712"/>
      <point x="73" y="625"/>
      <point x="73" y="518" type="curve" smooth="yes"/>
      <point x="73" y="491"/>
      <point x="79" y="462"/>
      <point x="92" y="433" type="curve"/>
      <point x="180" y="448" type="line"/>
      <point x="169" y="471"/>
      <point x="164" y="493"/>
      <point x="164" y="514" type="curve" smooth="yes"/>
      <point x="164" y="584"/>
      <point x="219" y="636"/>
      <point x="301" y="636" type="curve" smooth="yes"/>
      <point x="391" y="636"/>
      <point x="437" y="569"/>
      <point x="437" y="500" type="curve" smooth="yes"/>
      <point x="437" y="379"/>
      <point x="318" y="294"/>
      <point x="69" y="74" type="curve"/>
      <point x="69" y="0" type="line"/>
    </contour>
  </outline>
</glyph>
<glyph name="six" format="2">
  <advance width="600"/>
  <unicode hex="0036"/>
  <outline>
    <contour>
      <point x="306" y="-12" type="curve" smooth="yes"/>
      <point x="457" y="-12"/>
      <point x="546" y="97"/>
      <point x="546" y="228" type="curve" smooth="yes"/>
      <point x="546" y="378"/>
      <point x="446" y="468"/>
      <point x="325" y="468" type="curve" smooth="yes"/>
      <point x="229" y="468"/>
      <point x="139" y="409"/>
      <point x="123" y="305" type="curve"/>
      <point x="150" y="305" type="line"/>
      <point x="150" y="369" type="line" smooth="yes"/>
      <point x="150" y="526"/>
      <point x="232" y="637"/>
      <point x="339" y="637" type="curve" smooth="yes"/>
      <point x="405" y="637"/>
      <point x="448" y="595"/>
      <point x="452" y="544" type="curve"/>
      <point x="542" y="530" type="line"/>
      <point x="536" y="623"/>
      <point x="471" y="712"/>
      <point x="343" y="712" type="curve" smooth="yes"/>
      <point x="187" y="712"/>
      <point x="58" y="579"/>
      <point x="58" y="331" type="curve" smooth="yes"/>
      <point x="58" y="221"/>
      <point x="73" y="148"/>
      <point x="111" y="90" type="curve" smooth="yes"/>
      <point x="154" y="22"/>
      <point x="229" y="-12"/>
    </contour>
    <contour>
      <point x="306" y="64" type="curve" smooth="yes"/>
      <point x="220" y="64"/>
      <point x="155" y="131"/>
      <point x="155" y="228" type="curve" smooth="yes"/>
      <point x="155" y="324"/>
      <point x="220" y="392"/>
      <point x="306" y="392" type="curve" smooth="yes"/>
      <point x="393" y="392"/>
      <point x="456" y="323"/>
      <point x="456" y="226" type="curve" smooth="yes"/>
      <point x="456" y="128"/>
      <point x="391" y="64"/>
    </contour>
  </outline>
</glyph>
<glyph name="equal" format="2">
  <advance width="600"/>
  <unicode hex="003D"/>
  <outline>
    <contour>
      <point x="528" y="402" type="line"/>
      <point x="528" y="478" type="line"/>
      <point x="72" y="478" type="line"/>
      <point x="72" y="402" type="line"/>
    </contour>
    <contour>
      <point x="528" y="202" type="line"/>
      <point x="528" y="278" type="line"/>
      <point x="72" y="278" type="line"/>
      <point x="72" y="202" type="line"/>
    </contour>
  </outline>
</glyph>
<glyph name="question" format="2">
  <advance width="600"/>
  <unicode hex="003F"/>
  <outline>
    <contour>
      <point x="247" y="227" type="line"/>
      <point x="328" y="227" type="line"/>
      <point x="328" y="238" type="line" smooth="yes"/>
      <point x="328" y="282"/>
      <point x="350" y="316"/>
      <point x="397" y="348" type="curve" smooth="yes"/>
      <point x="451" y="385"/>
      <point x="514" y="432"/>
      <point x="514" y="529" type="curve" smooth="yes"/>
      <point x="514" y="639"/>
      <point x="431" y="712"/>
      <point x="301" y="712" type="curve" smooth="yes"/>
      <point x="172" y="712"/>
      <point x="91" y="644"/>
      <point x="69" y="540" type="curve"/>
      <point x="157" y="517" type="line"/>
      <point x="172" y="586"/>
      <point x="213" y="634"/>
      <point x="300" y="634" type="curve" smooth="yes"/>
      <point x="377" y="634"/>
      <point x="423" y="592"/>
      <point x="423" y="529" type="curve" smooth="yes"/>
      <point x="423" y="479"/>
      <point x="393" y="443"/>
      <point x="340" y="405" type="curve" smooth="yes"/>
      <point x="271" y="356"/>
      <point x="247" y="320"/>
      <point x="247" y="245" type="curve" smooth="yes"/>
    </contour>
    <contour>
      <point x="235" y="124" type="line"/>
      <point x="235" y="0" type="line"/>
      <point x="340" y="0" type="line"/>
      <point x="340" y="124" type="line"/>
    </contour>
  </outline>
</glyph>
<glyph name="at" format="2">
  <advance width="760"/>
  <unicode hex="0040"/>
  <outline>
    <contour>
      <point x="50" y="222" type="curve" smooth="yes"/>
      <point x="50" y="5"/>
      <point x="179" y="-130"/>
      <point x="389" y="-130" type="curve" smooth="yes"/>
      <point x="469" y="-130"/>
      <point x="548" y="-109"/>
      <point x="612" y="-68" type="curve"/>
      <point x="582" y="-10" type="line"/>
      <point x="522" y="-46"/>
      <point x="460" y="-63"/>
      <point x="389" y="-63" type="curve" smooth="yes"/>
      <point x="223" y="-63"/>
      <point x="123" y="46"/>
      <point x="123" y="222" type="curve" smooth="yes"/>
      <point x="123" y="432"/>
      <point x="251" y="569"/>
      <point x="421" y="569" type="curve" smooth="yes"/>
      <point x="540" y="569"/>
      <point x="657" y="501"/>
      <point x="657" y="306" type="curve" smooth="yes"/>
      <point x="657" y="184"/>
      <point x="612" y="125"/>
      <point x="565" y="125" type="curve" smooth="yes"/>
      <point x="538" y="125"/>
      <point x="527" y="143"/>
      <point x="531" y="179" type="curve" smooth="yes"/>
      <point x="560" y="451" type="line"/>
      <point x="481" y="451" type="line"/>
      <point x="476" y="403" type="line"/>
      <point x="459" y="438"/>
      <point x="420" y="457"/>
      <point x="378" y="457" type="curve" smooth="yes"/>
      <point x="297" y="457"/>
      <point x="224" y="392"/>
      <point x="210" y="267" type="curve" smooth="yes"/>
      <point x="194" y="127"/>
      <point x="262" y="52"/>
      <point x="350" y="52" type="curve" smooth="yes"/>
      <point x="394" y="52"/>
      <point x="432" y="71"/>
      <point x="457" y="109" type="curve"/>
      <point x="469" y="75"/>
      <point x="504" y="52"/>
      <point x="550" y="52" type="curve" smooth="yes"/>
      <point x="650" y="52"/>
      <point x="730" y="148"/>
      <point x="730" y="306" type="curve" smooth="yes"/>
      <point x="730" y="541"/>
      <point x="578" y="636"/>
      <point x="421" y="636" type="curve" smooth="yes"/>
      <point x="213" y="636"/>
      <point x="50" y="477"/>
    </contour>
    <contour>
      <point x="463" y="250" type="curve" smooth="yes"/>
      <point x="454" y="167"/>
      <point x="419" y="120"/>
      <point x="367" y="120" type="curve" smooth="yes"/>
      <point x="311" y="120"/>
      <point x="282" y="175"/>
      <point x="291" y="261" type="curve" smooth="yes"/>
      <point x="300" y="343"/>
      <point x="336" y="389"/>
      <point x="388" y="389" type="curve" smooth="yes"/>
      <point x="443" y="389"/>
      <point x="472" y="334"/>
    </contour>
  </outline>
</glyph>
<glyph name="B" format="2">
  <advance width="680"/>
  <unicode hex="0042"/>
  <outline>
    <contour>
      <point x="87" y="700" type="line"/>
      <point x="87" y="0" type="line"/>
      <point x="178" y="0" type="line"/>
      <point x="178" y="700" type="line"/>
    </contour>
    <contour>
      <point x="408" y="0" type="line" smooth="yes"/>
      <point x="539" y="0"/>
      <point x="623" y="87"/>
      <point x="623" y="199" type="curve" smooth="yes"/>
      <point x="623" y="294"/>
      <point x="562" y="349"/>
      <point x="501" y="373" type="curve"/>
      <point x="501" y="356" type="line"/>
      <point x="557" y="374"/>
      <point x="608" y="430"/>
      <point x="608" y="513" type="curve" smooth="yes"/>
      <point x="608" y="623"/>
      <point x="528" y="700"/>
      <point x="408" y="700" type="curve" smooth="yes"/>
      <point x="122" y="700" type="line"/>
      <point x="122" y="619" type="line"/>
      <point x="401" y="619" type="line" smooth="yes"/>
      <point x="474" y="619"/>
      <point x="520" y="576"/>
      <point x="520" y="510" type="curve" smooth="yes"/>
      <point x="520" y="444"/>
      <point x="478" y="400"/>
      <point x="405" y="400" type="curve" smooth="yes"/>
      <point x="121" y="400" type="line"/>
      <point x="121" y="319" type="line"/>
      <point x="402" y="319" type="line" smooth="yes"/>
      <point x="475" y="319"/>
      <point x="531" y="277"/>
      <point x="531" y="200" type="curve" smooth="yes"/>
      <point x="531" y="125"/>
      <point x="479" y="81"/>
      <point x="402" y="81" type="curve" smooth="yes"/>
      <point x="122" y="81" type="line"/>
      <point x="122" y="0" type="line"/>
    </contour>
  </outline>
</glyph>
<glyph name="C" format="2">
  <advance width="760"/>
  <unicode hex="0043"/>
  <outline>
    <contour>
      <point x="76" y="350" type="curve" smooth="yes"/>
      <point x="76" y="136"/>
      <point x="217" y="-12"/>
      <point x="400" y="-12" type="curve" smooth="yes"/>
      <point x="545" y="-12"/>
      <point x="658" y="81"/>
      <point x="694" y="215" type="curve"/>
      <point x="610" y="242" type="line"/>
      <point x="585" y="144"/>
      <point x="508" y="69"/>
      <point x="400" y="69" type="curve" smooth="yes"/>
      <point x="265" y="69"/>
      <point x="169" y="181"/>
      <point x="169" y="350" type="curve" smooth="yes"/>
      <point x="169" y="519"/>
      <point x="265" y="631"/>
      <point x="400" y="631" type="curve" smooth="yes"/>
      <point x="508" y="631"/>
      <point x="584" y="559"/>
      <point x="609" y="460" type="curve"/>
      <point x="693" y="487" type="line"/>
      <point x="655" y="620"/>
      <point x="543" y="712"/>
      <point x="400" y="712" type="curve" smooth="yes"/>
      <point x="217" y="712"/>
      <point x="76" y="564"/>
    </contour>
  </outline>
</glyph>
<glyph name="D" format="2">
  <advance width="760"/>
  <unicode hex="0044"/>
  <outline>
    <contour>
      <point x="124" y="82" type="line"/>
      <point x="124" y="0" type="line"/>
      <point x="382" y="0" type="line" smooth="yes"/>
      <point x="582" y="0"/>
      <point x="704" y="149"/>
      <point x="704" y="350" type="curve" smooth="yes"/>
      <point x="704" y="551"/>
      <point x="582" y="700"/>
      <point x="382" y="700" type="curve" smooth="yes"/>
      <point x="123" y="700" type="line"/>
      <point x="123" y="618" type="line"/>
      <point x="375" y="618" type="line" smooth="yes"/>
      <point x="526" y="618"/>
      <point x="611" y="516"/>
      <point x="611" y="350" type="curve" smooth="yes"/>
      <point x="611" y="184"/>
      <point x="526" y="82"/>
      <point x="375" y="82" type="curve" smooth="yes"/>
    </contour>
    <contour>
      <point x="90" y="0" type="line"/>
      <point x="181" y="0" type="line"/>
      <point x="181" y="700" type="line"/>
      <point x="90" y="700" type="line"/>
    </contour>
  </outline>
</glyph>
<glyph name="G" format="2">
  <advance width="760"/>
  <unicode hex="0047"/>
  <outline>
    <contour>
      <point x="390" y="712" type="curve" smooth="yes"/>
      <point x="203" y="712"/>
      <point x="56" y="564"/>
      <point x="56" y="350" type="curve" smooth="yes"/>
      <point x="56" y="136"/>
      <point x="197" y="-12"/>
      <point x="384" y="-12" type="curve" smooth="yes"/>
      <point x="504" y="-12"/>
      <point x="575" y="50"/>
      <point x="630" y="144" type="curve"/>
      <point x="615" y="144" type="line"/>
      <point x="615" y="0" type="line"/>
      <point x="692" y="0" type="line"/>
      <point x="692" y="367" type="line"/>
      <point x="431" y="367" type="line"/>
      <point x="431" y="294" type="line"/>
      <point x="662" y="294" type="line"/>
      <point x="623" y="311" type="line"/>
      <point x="623" y="290" type="line" smooth="yes"/>
      <point x="623" y="159"/>
      <point x="517" y="67"/>
      <point x="393" y="67" type="curve" smooth="yes"/>
      <point x="251" y="67"/>
      <point x="149" y="181"/>
      <point x="149" y="350" type="curve" smooth="yes"/>
      <point x="149" y="519"/>
      <point x="251" y="631"/>
      <point x="390" y="631" type="curve" smooth="yes"/>
      <point x="501" y="631"/>
      <point x="577" y="558"/>
      <point x="600" y="470" type="curve"/>
      <point x="684" y="498" type="line"/>
      <point x="650" y="620"/>
      <point x="536" y="712"/>
    </contour>
  </outline>
</glyph>
<glyph name="H" format="2">
  <advance width="760"/>
  <unicode hex="0048"/>
  <outline>
    <contour>
      <point x="156" y="320" type="line"/>
      <point x="605" y="320" type="line"/>
      <point x="605" y="402" type="line"/>
      <point x="156" y="402" type="line"/>
    </contour>
    <contour>
      <point x="560" y="700" type="line"/>
      <point x="560" y="0" type="line"/>
      <point x="651" y="0" type="line"/>
      <point x="651" y="700" type="line"/>
    </contour>
    <contour>
      <point x="109" y="700" type="line"/>
      <point x="109" y="0" type="line"/>
      <point x="200" y="0" type="line"/>
      <point x="200" y="700" type="line"/>
    </contour>
  </outline>
</glyph>
<glyph name="I" format="2">
  <advance width="350"/>
  <unicode hex="0049"/>
  <outline>
    <contour>
      <point x="129" y="86" type="line"/>
      <point x="129" y="0" type="line"/>
      <point x="220" y="0" type="line"/>
      <point x="220" y="86" type="line"/>
    </contour>
    <contour>
      <point x="129" y="700" type="line"/>
      <point x="129" y="614" type="line"/>
      <point x="220" y="614" type="line"/>
      <point x="220" y="700" type="line"/>
    </contour>
    <contour>
      <point x="129" y="700" type="line"/>
      <point x="129" y="0" type="line"/>
      <point x="220" y="0" type="line"/>
      <point x="220" y="700" type="line"/>
    </contour>
  </outline>
</glyph>
<glyph name="M" format="2">
  <advance width="760"/>
  <unicode hex="004D"/>
  <outline>
    <contour>
      <point x="164" y="622" type="line"/>
      <point x="359" y="230" type="line"/>
      <point x="401" y="230" type="line"/>
      <point x="594" y="621" type="line"/>
      <point x="582" y="621" type="line"/>
      <point x="582" y="0" type="line"/>
      <point x="668" y="0" type="line"/>
      <point x="668" y="700" type="line"/>
      <point x="552" y="700" type="line"/>
      <point x="374" y="340" type="line"/>
      <point x="389" y="340" type="line"/>
      <point x="210" y="700" type="line"/>
      <point x="92" y="700" type="line"/>
      <point x="92" y="0" type="line"/>
      <point x="177" y="0" type="line"/>
      <point x="177" y="622" type="line"/>
    </contour>
  </outline>
</glyph>
<glyph name="N" format="2">
  <advance width="760"/>
  <unicode hex="004E"/>
  <outline>
    <contour>
      <point x="627" y="40" type="line"/>
      <point x="231" y="700" type="line"/>
      <point x="104" y="700" type="line"/>
      <point x="104" y="0" type="line"/>
      <point x="193" y="0" type="line"/>
      <point x="193" y="657" type="line"/>
      <point x="159" y="657" type="line"/>
      <point x="553" y="0" type="line"/>
      <point x="656" y="0" type="line"/>
      <point x="656" y="700" type="line"/>
      <point x="567" y="700" type="line"/>
      <point x="567" y="40" type="line"/>
    </contour>
  </outline>
</glyph>
<glyph name="P" format="2">
  <advance width="680"/>
  <unicode hex="0050"/>
  <outline>
    <contour>
      <point x="97" y="700" type="line"/>
      <point x="97" y="0" type="line"/>
      <point x="188" y="0" type="line"/>
      <point x="188" y="700" type="line"/>
    </contour>
    <contour>
      <point x="432" y="618" type="line" smooth="yes"/>
      <point x="511" y="618"/>
      <point x="558" y="586"/>
      <point x="558" y="510" type="curve" smooth="yes"/>
      <point x="558" y="434"/>
      <point x="510" y="398"/>
      <point x="432" y="398" type="curve" smooth="yes"/>
      <point x="139" y="398" type="line"/>
      <point x="139" y="316" type="line"/>
      <point x="439" y="316" type="line" smooth="yes"/>
      <point x="563" y="316"/>
      <point x="651" y="394"/>
      <point x="651" y="510" type="curve" smooth="yes"/>
      <point x="651" y="626"/>
      <point x="562" y="700"/>
      <point x="438" y="700" type="curve" smooth="yes"/>
      <point x="140" y="700" type="line"/>
      <point x="140" y="618" type="line"/>
    </contour>
  </outline>
</glyph>
<glyph name="S" format="2">
  <advance width="600"/>
  <unicode hex="0053"/>
  <outline>
    <contour>
      <point x="32" y="217" type="line"/>
      <point x="40" y="81"/>
      <point x="145" y="-12"/>
      <point x="313" y="-12" type="curve" smooth="yes"/>
      <point x="470" y="-12"/>
      <point x="565" y="78"/>
      <point x="565" y="206" type="curve" smooth="yes"/>
      <point x="565" y="305"/>
      <point x="505" y="369"/>
      <point x="378" y="388" type="curve" smooth="yes"/>
      <point x="276" y="403" type="line" smooth="yes"/>
      <point x="177" y="418"/>
      <point x="143" y="449"/>
      <point x="143" y="506" type="curve" smooth="yes"/>
      <point x="143" y="580"/>
      <point x="204" y="632"/>
      <point x="296" y="632" type="curve" smooth="yes"/>
      <point x="390" y="632"/>
      <point x="447" y="579"/>
      <point x="453" y="509" type="curve"/>
      <point x="551" y="503" type="line"/>
      <point x="542" y="616"/>
      <point x="445" y="712"/>
      <point x="297" y="712" type="curve" smooth="yes"/>
      <point x="154" y="712"/>
      <point x="51" y="627"/>
      <point x="51" y="502" type="curve" smooth="yes"/>
      <point x="51" y="395"/>
      <point x="118" y="337"/>
      <point x="251" y="318" type="curve" smooth="yes"/>
      <point x="353" y="303" type="line" smooth="yes"/>
      <point x="437" y="291"/>
      <point x="472" y="256"/>
      <point x="472" y="196" type="curve" smooth="yes"/>
      <point x="472" y="117"/>
      <point x="410" y="68"/>
      <point x="312" y="68" type="curve" smooth="yes"/>
      <point x="208" y="68"/>
      <point x="147" y="121"/>
      <point x="136" y="210" type="curve"/>
    </contour>
  </outline>
</glyph>
<glyph name="T" format="2">
  <advance width="680"/>
  <unicode hex="0054"/>
  <outline>
    <contour>
      <point x="41" y="700" type="line"/>
      <point x="41" y="620" type="line"/>
      <point x="640" y="620" type="line"/>
      <point x="640" y="700" type="line"/>
    </contour>
    <contour>
      <point x="295" y="671" type="line"/>
      <point x="295" y="0" type="line"/>
      <point x="386" y="0" type="line"/>
      <point x="386" y="671" type="line"/>
    </contour>
  </outline>
</glyph>
<glyph name="U" format="2">
  <advance width="760"/>
  <unicode hex="0055"/>
  <outline>
    <contour>
      <point x="656" y="700" type="line"/>
      <point x="566" y="700" type="line"/>
      <point x="566" y="264" type="line" smooth="yes"/>
      <point x="566" y="147"/>
      <point x="499" y="72"/>
      <point x="381" y="72" type="curve" smooth="yes"/>
      <point x="263" y="72"/>
      <point x="195" y="147"/>
      <point x="195" y="264" type="curve" smooth="yes"/>
      <point x="195" y="700" type="line"/>
      <point x="104" y="700" type="line"/>
      <point x="104" y="256" type="line" smooth="yes"/>
      <point x="104" y="96"/>
      <point x="213" y="-12"/>
      <point x="381" y="-12" type="curve" smooth="yes"/>
      <point x="549" y="-12"/>
      <point x="656" y="96"/>
      <point x="656" y="256" type="curve" smooth="yes"/>
    </contour>
  </outline>
</glyph>
<glyph name="W" format="2">
  <advance width="760"/>
  <unicode hex="0057"/>
  <outline>
    <contour>
      <point x="604" y="0" type="line"/>
      <point x="723" y="700" type="line"/>
      <point x="636" y="700" type="line"/>
      <point x="533" y="36" type="line"/>
      <point x="566" y="36" type="line"/>
      <point x="425" y="520" type="line"/>
      <point x="336" y="520" type="line"/>
      <point x="197" y="36" type="line"/>
      <point x="231" y="36" type="line"/>
      <point x="124" y="700" type="line"/>
      <point x="37" y="700" type="line"/>
      <point x="157" y="0" type="line"/>
      <point x="261" y="0" type="line"/>
      <point x="397" y="467" type="line"/>
      <point x="366" y="467" type="line"/>
      <point x="503" y="0" type="line"/>
    </contour>
  </outline>
</glyph>
<glyph name="Y" format="2">
  <advance width="680"/>
  <unicode hex="0059"/>
  <outline>
    <contour>
      <point x="366" y="372" type="line"/>
      <point x="130" y="700" type="line"/>
      <point x="27" y="700" type="line"/>
      <point x="294" y="324" type="line"/>
      <point x="294" y="0" type="line"/>
      <point x="385" y="0" type="line"/>
      <point x="385" y="324" type="line"/>
      <point x="653" y="700" type="line"/>
      <point x="552" y="700" type="line"/>
      <point x="315" y="372" type="line"/>
    </contour>
  </outline>
</glyph>
<glyph name="underscore" format="2">
  <advance width="350"/>
  <unicode hex="005F"/>
  <outline>
    <contour>
      <point x="6" y="-140" type="line"/>
      <point x="344" y="-140" type="line"/>
      <point x="344" y="-70" type="line"/>
      <point x="6" y="-70" type="line"/>
    </contour>
  </outline>
</glyph>
<glyph name="d" format="2">
  <advance width="600"/>
  <unicode hex="0064"/>
  <outline>
    <contour>
      <point x="257" y="502" type="curve" smooth="yes"/>
      <point x="147" y="502"/>
      <point x="54" y="411"/>
      <point x="54" y="244" type="curve" smooth="yes"/>
      <point x="54" y="76"/>
      <point x="147" y="-12"/>
      <point x="257" y="-12" type="curve" smooth="yes"/>
      <point x="344" y="-12"/>
      <point x="413" y="32"/>
      <point x="452" y="117" type="curve"/>
      <point x="423" y="117" type="line"/>
      <point x="423" y="0" type="line"/>
      <point x="511" y="0" type="line"/>
      <point x="511" y="700" type="line"/>
      <point x="423" y="700" type="line"/>
      <point x="423" y="371" type="line"/>
      <point x="452" y="371" type="line"/>
      <point x="413" y="457"/>
      <point x="344" y="502"/>
    </contour>
    <contour>
      <point x="286" y="58" type="curve" smooth="yes"/>
      <point x="194" y="58"/>
      <point x="143" y="130"/>
      <point x="143" y="245" type="curve" smooth="yes"/>
      <point x="143" y="360"/>
      <point x="194" y="432"/>
      <point x="286" y="432" type="curve" smooth="yes"/>
      <point x="378" y="432"/>
      <point x="429" y="360"/>
      <point x="429" y="245" type="curve" smooth="yes"/>
      <point x="429" y="130"/>
      <point x="378" y="58"/>
    </contour>
  </outline>
</glyph>
<glyph name="e" format="2">
  <advance width="600"/>
  <unicode hex="0065"/>
  <outline>
    <contour>
      <point x="309" y="-12" type="curve" smooth="yes"/>
      <point x="425" y="-12"/>
      <point x="508" y="48"/>
      <point x="536" y="142" type="curve"/>
      <point x="459" y="164" type="line"/>
      <point x="441" y="100"/>
      <point x="389" y="58"/>
      <point x="309" y="58" type="curve" smooth="yes"/>
      <point x="212" y="58"/>
      <point x="152" y="123"/>
      <point x="152" y="244" type="curve" smooth="yes"/>
      <point x="152" y="359"/>
      <point x="213" y="432"/>
      <point x="309" y="432" type="curve" smooth="yes"/>
      <point x="397" y="432"/>
      <point x="453" y="374"/>
      <point x="453" y="247" type="curve"/>
      <point x="475" y="292" type="line"/>
      <point x="113" y="292" type="line"/>
      <point x="113" y="226" type="line"/>
      <point x="536" y="226" type="line"/>
      <point x="536" y="242" type="line" smooth="yes"/>
      <point x="536" y="393"/>
      <point x="448" y="502"/>
      <point x="309" y="502" type="curve" smooth="yes"/>
      <point x="169" y="502"/>
      <point x="64" y="404"/>
      <point x="64" y="244" type="curve" smooth="yes"/>
      <point x="64" y="85"/>
      <point x="170" y="-12"/>
    </contour>
  </outline>
</glyph>
<glyph name="g" format="2">
  <advance width="600"/>
  <unicode hex="0067"/>
  <outline>
    <contour>
      <point x="290" y="85" type="curve" smooth="yes"/>
      <point x="201" y="85"/>
      <point x="151" y="159"/>
      <point x="151" y="259" type="curve" smooth="yes"/>
      <point x="151" y="359"/>
      <point x="201" y="432"/>
      <point x="290" y="432" type="curve" smooth="yes"/>
      <point x="379" y="432"/>
      <point x="429" y="359"/>
      <point x="429" y="259" type="curve" smooth="yes"/>
      <point x="429" y="159"/>
      <point x="379" y="85"/>
    </contour>
    <contour>
      <point x="511" y="-6" type="curve" smooth="yes"/>
      <point x="511" y="490" type="line"/>
      <point x="423" y="490" type="line"/>
      <point x="423" y="371" type="line"/>
      <point x="457" y="371" type="line"/>
      <point x="418" y="457"/>
      <point x="349" y="502"/>
      <point x="266" y="502" type="curve" smooth="yes"/>
      <point x="156" y="502"/>
      <point x="62" y="410"/>
      <point x="62" y="258" type="curve" smooth="yes"/>
      <point x="62" y="105"/>
      <point x="156" y="16"/>
      <point x="266" y="16" type="curve" smooth="yes"/>
      <point x="349" y="16"/>
      <point x="418" y="60"/>
      <point x="457" y="144" type="curve"/>
      <point x="423" y="144" type="line"/>
      <point x="423" y="-3" type="line" smooth="yes"/>
      <point x="423" y="-86"/>
      <point x="364" y="-125"/>
      <point x="292" y="-125" type="curve" smooth="yes"/>
      <point x="216" y="-125"/>
      <point x="173" y="-82"/>
      <point x="164" y="-21" type="curve"/>
      <point x="75" y="-37" type="line"/>
      <point x="91" y="-132"/>
      <point x="173" y="-192"/>
      <point x="292" y="-192" type="curve" smooth="yes"/>
      <point x="408" y="-192"/>
      <point x="511" y="-130"/>
    </contour>
  </outline>
</glyph>
<glyph name="l" format="2">
  <advance width="350"/>
  <unicode hex="006C"/>
  <outline>
    <contour>
      <point x="131" y="62" type="line"/>
      <point x="131" y="0" type="line"/>
      <point x="219" y="0" type="line"/>
      <point x="219" y="62" type="line"/>
    </contour>
    <contour>
      <point x="131" y="700" type="line"/>
      <point x="131" y="637" type="line"/>
      <point x="179" y="637" type="line"/>
      <point x="179" y="700" type="line"/>
    </contour>
    <contour>
      <point x="131" y="700" type="line"/>
      <point x="131" y="0" type="line"/>
      <point x="219" y="0" type="line"/>
      <point x="219" y="700" type="line"/>
    </contour>
  </outline>
</glyph>
<glyph name="m" format="2">
  <advance width="760"/>
  <unicode hex="006D"/>
  <outline>
    <contour>
      <point x="377" y="345" type="line"/>
      <point x="424" y="345" type="line"/>
      <point x="424" y="397"/>
      <point x="461" y="431"/>
      <point x="510" y="431" type="curve" smooth="yes"/>
      <point x="558" y="431"/>
      <point x="587" y="397"/>
      <point x="587" y="354" type="curve" smooth="yes"/>
      <point x="587" y="0" type="line"/>
      <point x="672" y="0" type="line"/>
      <point x="672" y="359" type="line" smooth="yes"/>
      <point x="672" y="439"/>
      <point x="623" y="501"/>
      <point x="540" y="501" type="curve" smooth="yes"/>
      <point x="471" y="501"/>
      <point x="408" y="461"/>
      <point x="396" y="394" type="curve"/>
      <point x="377" y="394" type="line"/>
    </contour>
    <contour>
      <point x="91" y="490" type="line"/>
      <point x="91" y="0" type="line"/>
      <point x="176" y="0" type="line"/>
      <point x="176" y="345" type="line" smooth="yes"/>
      <point x="176" y="397"/>
      <point x="213" y="431"/>
      <point x="262" y="431" type="curve" smooth="yes"/>
      <point x="310" y="431"/>
      <point x="339" y="397"/>
      <point x="339" y="354" type="curve" smooth="yes"/>
      <point x="339" y="0" type="line"/>
      <point x="424" y="0" type="line"/>
      <point x="424" y="359" type="line" smooth="yes"/>
      <point x="424" y="437"/>
      <point x="375" y="501"/>
      <point x="294" y="501" type="curve" smooth="yes"/>
      <point x="226" y="501"/>
      <point x="169" y="461"/>
      <point x="157" y="394" type="curve"/>
      <point x="176" y="394" type="line"/>
      <point x="176" y="490" type="line"/>
    </contour>
  </outline>
</glyph>
<glyph name="n" format="2">
  <advance width="600"/>
  <unicode hex="006E"/>
  <outline>
    <contour>
      <point x="93" y="490" type="line"/>
      <point x="93" y="0" type="line"/>
      <point x="181" y="0" type="line"/>
      <point x="181" y="298" type="line" smooth="yes"/>
      <point x="181" y="377"/>
      <point x="233" y="431"/>
      <point x="309" y="431" type="curve" smooth="yes"/>
      <point x="383" y="431"/>
      <point x="422" y="377"/>
      <point x="422" y="307" type="curve" smooth="yes"/>
      <point x="422" y="0" type="line"/>
      <point x="510" y="0" type="line"/>
      <point x="510" y="322" type="line" smooth="yes"/>
      <point x="510" y="421"/>
      <point x="444" y="502"/>
      <point x="339" y="502" type="curve" smooth="yes"/>
      <point x="257" y="502"/>
      <point x="190" y="455"/>
      <point x="157" y="386" type="curve"/>
      <point x="181" y="386" type="line"/>
      <point x="181" y="490" type="line"/>
    </contour>
  </outline>
</glyph>
<glyph name="o" format="2">
  <advance width="600"/>
  <unicode hex="006F"/>
  <outline>
    <contour>
      <point x="300" y="-12" type="curve" smooth="yes"/>
      <point x="437" y="-12"/>
      <point x="543" y="87"/>
      <point x="543" y="245" type="curve" smooth="yes"/>
      <point x="543" y="403"/>
      <point x="437" y="502"/>
      <point x="300" y="502" type="curve" smooth="yes"/>
      <point x="163" y="502"/>
      <point x="57" y="403"/>
      <point x="57" y="245" type="curve" smooth="yes"/>
      <point x="57" y="87"/>
      <point x="163" y="-12"/>
    </contour>
    <contour>
      <point x="300" y="432" type="curve" smooth="yes"/>
      <point x="395" y="432"/>
      <point x="454" y="360"/>
      <point x="454" y="245" type="curve" smooth="yes"/>
      <point x="454" y="130"/>
      <point x="395" y="58"/>
      <point x="300" y="58" type="curve" smooth="yes"/>
      <point x="205" y="58"/>
      <point x="146" y="130"/>
      <point x="146" y="245" type="curve" smooth="yes"/>
      <point x="146" y="360"/>
      <point x="205" y="432"/>
    </contour>
  </outline>
</glyph>
<glyph name="r" format="2">
  <advance width="350"/>
  <unicode hex="0072"/>
  <outline>
    <contour>
      <point x="70" y="490" type="line"/>
      <point x="70" y="0" type="line"/>
      <point x="158" y="0" type="line"/>
      <point x="158" y="241" type="line" smooth="yes"/>
      <point x="158" y="352"/>
      <point x="228" y="408"/>
      <point x="302" y="408" type="curve" smooth="yes"/>
      <point x="312" y="408"/>
      <point x="321" y="407"/>
      <point x="331" y="405" type="curve"/>
      <point x="331" y="498" type="line"/>
      <point x="326" y="499"/>
      <point x="321" y="500"/>
      <point x="312" y="500" type="curve" smooth="yes"/>
      <point x="229" y="500"/>
      <point x="167" y="434"/>
      <point x="141" y="350" type="curve"/>
      <point x="158" y="350" type="line"/>
      <point x="158" y="490" type="line"/>
    </contour>
  </outline>
</glyph>
<glyph name="t" format="2">
  <advance width="600"/>
  <unicode hex="0074"/>
  <guideline x="311" y="298" angle="90" name="center" identifier="hcl9I6b7Yg"/>
  <outline>
    <contour>
      <point x="34" y="421" type="line"/>
      <point x="519" y="421" type="line"/>
      <point x="519" y="490" type="line"/>
      <point x="34" y="490" type="line"/>
    </contour>
    <contour>
      <point x="415" y="-12" type="curve" smooth="yes"/>
      <point x="452" y="-12"/>
      <point x="487" y="-8"/>
      <point x="524" y="0" type="curve"/>
      <point x="524" y="69" type="line"/>
      <point x="484" y="63"/>
      <point x="463" y="61"/>
      <point x="434" y="61" type="curve" smooth="yes"/>
      <point x="336" y="61"/>
      <point x="296" y="94"/>
      <point x="296" y="158" type="curve" smooth="yes"/>
      <point x="296" y="643" type="line"/>
      <point x="208" y="643" type="line"/>
      <point x="208" y="145" type="line" smooth="yes"/>
      <point x="208" y="42"/>
      <point x="280" y="-12"/>
    </contour>
  </outline>
</glyph>
<glyph name="v" format="2">
  <advance width="600"/>
  <unicode hex="0076"/>
  <outline>
    <contour>
      <point x="253" y="0" type="line"/>
      <point x="349" y="0" type="line"/>
      <point x="556" y="490" type="line"/>
      <point x="463" y="490" type="line"/>
      <point x="281" y="48" type="line"/>
      <point x="322" y="48" type="line"/>
      <point x="137" y="490" type="line"/>
      <point x="44" y="490" type="line"/>
    </contour>
  </outline>
</glyph>
<glyph name="x" format="2">
  <advance width="600"/>
  <unicode hex="0078"/>
  <outline>
    <contour>
      <point x="62" y="490" type="line"/>
      <point x="263" y="223" type="line"/>
      <point x="276" y="223" type="line"/>
      <point x="447" y="0" type="line"/>
      <point x="548" y="0" type="line"/>
      <point x="339" y="270" type="line"/>
      <point x="324" y="275" type="line"/>
      <point x="163" y="490" type="line"/>
    </contour>
    <contour>
      <point x="533" y="490" type="line"/>
      <point x="436" y="490" type="line"/>
      <point x="279" y="275" type="line"/>
      <point x="261" y="272" type="line"/>
      <point x="51" y="0" type="line"/>
      <point x="150" y="0" type="line"/>
      <point x="323" y="224" type="line"/>
      <point x="333" y="221" type="line"/>
    </contour>
  </outline>
</glyph>
<glyph name="y" format="2">
  <advance width="600"/>
  <unicode hex="0079"/>
  <outline>
    <contour>
      <point x="255" y="-180" type="line"/>
      <point x="556" y="490" type="line"/>
      <point x="462" y="490" type="line"/>
      <point x="275" y="57" type="line"/>
      <point x="261" y="28" type="line"/>
      <point x="162" y="-180" type="line"/>
    </contour>
    <contour>
      <point x="44" y="490" type="line"/>
      <point x="286" y="-60" type="line"/>
      <point x="329" y="47" type="line"/>
      <point x="139" y="490" type="line"/>
    </contour>
  </outline>
</glyph>
<glyph name="z" format="2">
  <advance width="600"/>
  <unicode hex="007A"/>
  <outline>
    <contour>
      <point x="83" y="62" type="line"/>
      <point x="83" y="0" type="line"/>
      <point x="515" y="0" type="line"/>
      <point x="515" y="73" type="line"/>
      <point x="135" y="73" type="line"/>
      <point x="162" y="34" type="line"/>
      <point x="512" y="436" type="line"/>
      <point x="512" y="490" type="line"/>
      <point x="82" y="490" type="line"/>
      <point x="82" y="417" type="line"/>
      <point x="465" y="417" type="line"/>
      <point x="437" y="469" type="line"/>
    </contour>
  </outline>
</glyph>
<glyph name="currency" format="2">
  <advance width="680"/>
  <unicode hex="00A4"/>
  <outline>
    <contour>
      <point x="340" y="206" type="curve" smooth="yes"/>
      <point x="264" y="206"/>
      <point x="208" y="265"/>
      <point x="208" y="345" type="curve" smooth="yes"/>
      <point x="208" y="425"/>
      <point x="264" y="484"/>
      <point x="340" y="484" type="curve" smooth="yes"/>
      <point x="416" y="484"/>
      <point x="472" y="425"/>
      <point x="472" y="345" type="curve" smooth="yes"/>
      <point x="472" y="265"/>
      <point x="416" y="206"/>
    </contour>
    <contour>
      <point x="340" y="135" type="curve" smooth="yes"/>
      <point x="456" y="135"/>
      <point x="548" y="228"/>
      <point x="548" y="345" type="curve" smooth="yes"/>
      <point x="548" y="462"/>
      <point x="456" y="555"/>
      <point x="340" y="555" type="curve" smooth="yes"/>
      <point x="224" y="555"/>
      <point x="132" y="462"/>
      <point x="132" y="345" type="curve" smooth="yes"/>
      <point x="132" y="228"/>
      <point x="224" y="135"/>
    </contour>
    <contour>
      <point x="240" y="194" type="line"/>
      <point x="189" y="245" type="line"/>
      <point x="87" y="143" type="line"/>
      <point x="138" y="92" type="line"/>
    </contour>
    <contour>
      <point x="491" y="445" type="line"/>
      <point x="593" y="547" type="line"/>
      <point x="542" y="598" type="line"/>
      <point x="440" y="496" type="line"/>
    </contour>
    <contour>
      <point x="189" y="445" type="line"/>
      <point x="240" y="496" type="line"/>
      <point x="138" y="598" type="line"/>
      <point x="87" y="547" type="line"/>
    </contour>
    <contour>
      <point x="542" y="92" type="line"/>
      <point x="593" y="143" type="line"/>
      <point x="491" y="245" type="line"/>
      <point x="440" y="194" type="line"/>
    </contour>
  </outline>
</glyph>
<glyph name="brokenbar" format="2">
  <advance width="350"/>
  <unicode hex="00A6"/>
  <outline>
    <contour>
      <point x="134" y="745" type="line"/>
      <point x="134" y="377" type="line"/>
      <point x="217" y="377" type="line"/>
      <point x="217" y="745" type="line"/>
    </contour>
    <contour>
      <point x="134" y="255" type="line"/>
      <point x="134" y="-113" type="line"/>
      <point x="217" y="-113" type="line"/>
      <point x="217" y="255" type="line"/>
    </contour>
  </outline>
</glyph>
<glyph name="degree" format="2">
  <advance width="350"/>
  <unicode hex="00B0"/>
  <outline>
    <contour>
      <point x="32" y="565" type="curve" smooth="yes"/>
      <point x="32" y="484"/>
      <point x="95" y="422"/>
      <point x="175" y="422" type="curve" smooth="yes"/>
      <point x="255" y="422"/>
      <point x="318" y="484"/>
      <point x="318" y="565" type="curve" smooth="yes"/>
      <point x="318" y="646"/>
      <point x="255" y="708"/>
      <point x="175" y="708" type="curve" smooth="yes"/>
      <point x="95" y="708"/>
      <point x="32" y="646"/>
    </contour>
    <contour>
      <point x="248" y="565" type="curve" smooth="yes"/>
      <point x="248" y="518"/>
      <point x="216" y="488"/>
      <point x="175" y="488" type="curve" smooth="yes"/>
      <point x="134" y="488"/>
      <point x="102" y="518"/>
      <point x="102" y="565" type="curve" smooth="yes"/>
      <point x="102" y="612"/>
      <point x="134" y="642"/>
      <point x="175" y="642" type="curve" smooth="yes"/>
      <point x="216" y="642"/>
      <point x="248" y="612"/>
    </contour>
  </outline>
</glyph>
<glyph name="AE" format="2">
  <advance width="760"/>
  <unicode hex="00C6"/>
  <outline>
    <contour>
      <point x="280" y="700" type="line"/>
      <point x="39" y="0" type="line"/>
      <point x="131" y="0" type="line"/>
      <point x="341" y="618" type="line"/>
      <point x="394" y="618" type="line"/>
      <point x="394" y="700" type="line"/>
    </contour>
    <contour>
      <point x="182" y="304" type="line"/>
      <point x="182" y="222" type="line"/>
      <point x="421" y="222" type="line"/>
      <point x="421" y="304" type="line"/>
    </contour>
    <contour>
      <point x="421" y="396" type="line"/>
      <point x="421" y="315" type="line"/>
      <point x="620" y="315" type="line"/>
      <point x="620" y="396" type="line"/>
    </contour>
    <contour>
      <point x="415" y="82" type="line"/>
      <point x="415" y="0" type="line"/>
      <point x="726" y="0" type="line"/>
      <point x="726" y="82" type="line"/>
    </contour>
    <contour>
      <point x="411" y="700" type="line"/>
      <point x="411" y="618" type="line"/>
      <point x="708" y="618" type="line"/>
      <point x="708" y="700" type="line"/>
    </contour>
    <contour>
      <point x="376" y="700" type="line"/>
      <point x="376" y="0" type="line"/>
      <point x="464" y="0" type="line"/>
      <point x="464" y="700" type="line"/>
    </contour>
  </outline>
</glyph>
<glyph name="Eth" format="2">
  <advance width="760"/>
  <unicode hex="00D0"/>
  <outline>
    <contour>
      <point x="143" y="82" type="line"/>
      <point x="143" y="0" type="line"/>
      <point x="382" y="0" type="line" smooth="yes"/>
      <point x="582" y="0"/>
      <point x="704" y="149"/>
      <point x="704" y="350" type="curve" smooth="yes"/>
      <point x="704" y="551"/>
      <point x="582" y="700"/>
      <point x="382" y="700" type="curve" smooth="yes"/>
      <point x="142" y="700" type="line"/>
      <point x="142" y="618" type="line"/>
      <point x="375" y="618" type="line" smooth="yes"/>
      <point x="526" y="618"/>
      <point x="611" y="516"/>
      <point x="611" y="350" type="curve" smooth="yes"/>
      <point x="611" y="184"/>
      <point x="526" y="82"/>
      <point x="375" y="82" type="curve" smooth="yes"/>
    </contour>
    <contour>
      <point x="109" y="0" type="line"/>
      <point x="200" y="0" type="line"/>
      <point x="200" y="700" type="line"/>
      <point x="109" y="700" type="line"/>
    </contour>
    <contour>
      <point x="29" y="317" type="line"/>
      <point x="363" y="317" type="line"/>
      <point x="363" y="398" type="line"/>
      <point x="29" y="398" type="line"/>
    </contour>
  </outline>
</glyph>
<glyph name="icircumflex" format="2">
  <advance width="350"/>
  <unicode hex="00EE"/>
  <outline>
    <contour>
      <point x="131" y="700" type="line"/>
      <point x="29" y="570" type="line"/>
      <point x="99" y="570" type="line"/>
      <point x="201" y="671" type="line"/>
      <point x="149" y="671" type="line"/>
      <point x="251" y="570" type="line"/>
      <point x="321" y="570" type="line"/>
      <point x="219" y="700" type="line"/>
    </contour>
    <component base="dotlessi" identifier="545A8925"/>
  </outline>
</glyph>
<glyph name="idieresis" format="2">
  <advance width="350"/>
  <unicode hex="00EF"/>
  <outline>
    <contour>
      <point x="36" y="700" type="line"/>
      <point x="36" y="597" type="line"/>
      <point x="132" y="597" type="line"/>
      <point x="132" y="700" type="line"/>
    </contour>
    <contour>
      <point x="217" y="700" type="line"/>
      <point x="217" y="597" type="line"/>
      <point x="313" y="597" type="line"/>
      <point x="313" y="700" type="line"/>
    </contour>
    <component base="dotlessi" identifier="0DC8F904"/>
  </outline>
</glyph>
<glyph name="eth" format="2">
  <advance width="600"/>
  <unicode hex="00F0"/>
  <outline>
    <contour>
      <point x="300" y="422" type="curve" smooth="yes"/>
      <point x="394" y="422"/>
      <point x="454" y="351"/>
      <point x="454" y="240" type="curve" smooth="yes"/>
      <point x="454" y="129"/>
      <point x="394" y="58"/>
      <point x="300" y="58" type="curve" smooth="yes"/>
      <point x="206" y="58"/>
      <point x="146" y="129"/>
      <point x="146" y="240" type="curve" smooth="yes"/>
      <point x="146" y="351"/>
      <point x="206" y="422"/>
    </contour>
    <contour>
      <point x="300" y="-12" type="curve" smooth="yes"/>
      <point x="438" y="-12"/>
      <point x="543" y="73"/>
      <point x="543" y="266" type="curve" smooth="yes"/>
      <point x="543" y="512"/>
      <point x="385" y="652"/>
      <point x="229" y="711" type="curve"/>
      <point x="137" y="687" type="line"/>
      <point x="310" y="619"/>
      <point x="398" y="529"/>
      <point x="438" y="418" type="curve"/>
      <point x="445" y="418" type="line"/>
      <point x="401" y="475"/>
      <point x="347" y="492"/>
      <point x="295" y="492" type="curve" smooth="yes"/>
      <point x="164" y="492"/>
      <point x="57" y="394"/>
      <point x="57" y="240" type="curve" smooth="yes"/>
      <point x="57" y="86"/>
      <point x="162" y="-12"/>
    </contour>
    <contour>
      <point x="179" y="514" type="line"/>
      <point x="480" y="643" type="line"/>
      <point x="457" y="699" type="line"/>
      <point x="156" y="570" type="line"/>
    </contour>
  </outline>
</glyph>
<glyph name="divide" format="2">
  <advance width="600"/>
  <unicode hex="00F7"/>
  <outline>
    <contour>
      <point x="528" y="302" type="line"/>
      <point x="528" y="378" type="line"/>
      <point x="72" y="378" type="line"/>
      <point x="72" y="302" type="line"/>
    </contour>
    <contour>
      <point x="245" y="205" type="line"/>
      <point x="245" y="99" type="line"/>
      <point x="354" y="99" type="line"/>
      <point x="354" y="205" type="line"/>
    </contour>
    <contour>
      <point x="245" y="581" type="line"/>
      <point x="245" y="475" type="line"/>
      <point x="354" y="475" type="line"/>
      <point x="354" y="581" type="line"/>
    </contour>
  </outline>
</glyph>
<glyph name="oslash" format="2">
  <advance width="600"/>
  <unicode hex="00F8"/>
  <outline>
    <contour>
      <point x="61" y="9" type="line"/>
      <point x="110" y="-32" type="line"/>
      <point x="539" y="481" type="line"/>
      <point x="490" y="522" type="line"/>
    </contour>
    <contour>
      <point x="300" y="-12" type="curve" smooth="yes"/>
      <point x="438" y="-12"/>
      <point x="543" y="87"/>
      <point x="543" y="245" type="curve" smooth="yes"/>
      <point x="543" y="403"/>
      <point x="438" y="502"/>
      <point x="300" y="502" type="curve" smooth="yes"/>
      <point x="162" y="502"/>
      <point x="57" y="403"/>
      <point x="57" y="245" type="curve" smooth="yes"/>
      <point x="57" y="87"/>
      <point x="162" y="-12"/>
    </contour>
    <contour>
      <point x="300" y="432" type="curve" smooth="yes"/>
      <point x="396" y="432"/>
      <point x="454" y="360"/>
      <point x="454" y="245" type="curve" smooth="yes"/>
      <point x="454" y="130"/>
      <point x="396" y="58"/>
      <point x="300" y="58" type="curve" smooth="yes"/>
      <point x="204" y="58"/>
      <point x="146" y="130"/>
      <point x="146" y="245" type="curve" smooth="yes"/>
      <point x="146" y="360"/>
      <point x="204" y="432"/>
    </contour>
  </outline>
</glyph>
<glyph name="Aogonek" format="2">
  <advance width="680"/>
  <unicode hex="0104"/>
  <outline>
    <contour>
      <point x="172" y="294" type="line"/>
      <point x="172" y="212" type="line"/>
      <point x="514" y="212" type="line"/>
      <point x="514" y="294" type="line"/>
    </contour>
    <contour>
      <point x="572" y="-39" type="line"/>
      <point x="651" y="0" type="line"/>
      <point x="387" y="700" type="line"/>
      <point x="295" y="700" type="line"/>
      <point x="29" y="0" type="line"/>
      <point x="123" y="0" type="line"/>
      <point x="361" y="634" type="line"/>
      <point x="322" y="634" type="line"/>
    </contour>
    <contour>
      <point x="596" y="-196" type="curve" smooth="yes"/>
      <point x="617" y="-196"/>
      <point x="641" y="-193"/>
      <point x="664" y="-186" type="curve"/>
      <point x="664" y="-125" type="line"/>
      <point x="644" y="-130"/>
      <point x="628" y="-133"/>
      <point x="610" y="-133" type="curve" smooth="yes"/>
      <point x="580" y="-133"/>
      <point x="563" y="-123"/>
      <point x="563" y="-100" type="curve" smooth="yes"/>
      <point x="563" y="-64"/>
      <point x="601" y="-30"/>
      <point x="651" y="0" type="curve"/>
      <point x="568" y="0" type="line"/>
      <point x="528" y="-24"/>
      <point x="488" y="-59"/>
      <point x="488" y="-113" type="curve" smooth="yes"/>
      <point x="488" y="-163"/>
      <point x="521" y="-196"/>
    </contour>
  </outline>
</glyph>
<glyph name="hbar" format="2">
  <advance width="600"/>
  <unicode hex="0127"/>
  <outline>
    <contour>
      <point x="333" y="554" type="line"/>
      <point x="333" y="619" type="line"/>
      <point x="25" y="619" type="line"/>
      <point x="25" y="554" type="line"/>
    </contour>
    <component base="h" identifier="B434FA80"/>
  </outline>
</glyph>
<glyph name="itilde" format="2">
  <advance width="350"/>
  <unicode hex="0129"/>
  <outline>
    <contour>
      <point x="120" y="677" type="curve" smooth="yes"/>
      <point x="70" y="677"/>
      <point x="44" y="635"/>
      <point x="41" y="570" type="curve"/>
      <point x="99" y="570" type="line"/>
      <point x="102" y="598"/>
      <point x="107" y="612"/>
      <point x="125" y="612" type="curve" smooth="yes"/>
      <point x="151" y="612"/>
      <point x="189" y="579"/>
      <point x="230" y="579" type="curve" smooth="yes"/>
      <point x="280" y="579"/>
      <point x="306" y="621"/>
      <point x="309" y="686" type="curve"/>
      <point x="250" y="686" type="line"/>
      <point x="248" y="658"/>
      <point x="243" y="644"/>
      <point x="225" y="644" type="curve" smooth="yes"/>
      <point x="199" y="644"/>
      <point x="161" y="677"/>
    </contour>
    <component base="dotlessi" identifier="A826B57B"/>
  </outline>
</glyph>
<glyph name="imacron" format="2">
  <advance width="350"/>
  <unicode hex="012B"/>
  <outline>
    <contour>
      <point x="41" y="604" type="line"/>
      <point x="309" y="604" type="line"/>
      <point x="309" y="670" type="line"/>
      <point x="41" y="670" type="line"/>
    </contour>
    <component base="dotlessi" identifier="D5265FC7"/>
  </outline>
</glyph>
<glyph name="ibreve" format="2">
  <advance width="350"/>
  <unicode hex="012D"/>
  <outline>
    <contour>
      <point x="40" y="700" type="line"/>
      <point x="40" y="626"/>
      <point x="89" y="565"/>
      <point x="175" y="565" type="curve" smooth="yes"/>
      <point x="261" y="565"/>
      <point x="310" y="626"/>
      <point x="310" y="700" type="curve"/>
      <point x="244" y="700" type="line"/>
      <point x="244" y="658"/>
      <point x="220" y="627"/>
      <point x="175" y="627" type="curve" smooth="yes"/>
      <point x="130" y="627"/>
      <point x="106" y="658"/>
      <point x="106" y="700" type="curve"/>
    </contour>
    <component base="dotlessi" identifier="F5673785"/>
  </outline>
</glyph>
<glyph name="dotlessi" format="2">
  <advance width="350"/>
  <unicode hex="0131"/>
  <outline>
    <contour>
      <point x="131" y="490" type="line"/>
      <point x="131" y="421" type="line"/>
      <point x="179" y="421" type="line"/>
      <point x="179" y="490" type="line"/>
    </contour>
    <contour>
      <point x="131" y="69" type="line"/>
      <point x="131" y="0" type="line"/>
      <point x="219" y="0" type="line"/>
      <point x="219" y="69" type="line"/>
    </contour>
    <contour>
      <point x="131" y="490" type="line"/>
      <point x="131" y="0" type="line"/>
      <point x="219" y="0" type="line"/>
      <point x="219" y="490" type="line"/>
    </contour>
  </outline>
</glyph>
<glyph name="IJ" format="2">
  <advance width="760"/>
  <unicode hex="0132"/>
  <outline>
    <contour>
      <point x="468" y="69" type="curve" smooth="yes"/>
      <point x="404" y="69"/>
      <point x="356" y="104"/>
      <point x="354" y="190" type="curve"/>
      <point x="258" y="200" type="line"/>
      <point x="259" y="67"/>
      <point x="342" y="-12"/>
      <point x="469" y="-12" type="curve" smooth="yes"/>
      <point x="588" y="-12"/>
      <point x="661" y="66"/>
      <point x="661" y="173" type="curve" smooth="yes"/>
      <point x="661" y="700" type="line"/>
      <point x="571" y="700" type="line"/>
      <point x="571" y="177" type="line" smooth="yes"/>
      <point x="571" y="115"/>
      <point x="536" y="69"/>
    </contour>
    <contour>
      <point x="109" y="700" type="line"/>
      <point x="109" y="0" type="line"/>
      <point x="200" y="0" type="line"/>
      <point x="200" y="700" type="line"/>
    </contour>
  </outline>
</glyph>
<glyph name="ldot" format="2">
  <advance width="350"/>
  <unicode hex="0140"/>
  <outline>
    <contour>
      <point x="300" y="433" type="line"/>
      <point x="300" y="317" type="line"/>
      <point x="399" y="317" type="line"/>
      <point x="399" y="433" type="line"/>
    </contour>
    <component base="l" identifier="9471C1E7"/>
  </outline>
</glyph>
<glyph name="Lslash" format="2">
  <advance width="600"/>
  <unicode hex="0141"/>
  <outline>
    <contour>
      <point x="17" y="285" type="line"/>
      <point x="17" y="203" type="line"/>
      <point x="409" y="384" type="line"/>
      <point x="409" y="466" type="line"/>
    </contour>
    <component base="L" identifier="13842320"/>
  </outline>
</glyph>
<glyph name="lslash" format="2">
  <advance width="350"/>
  <unicode hex="0142"/>
  <outline>
    <contour>
      <point x="33" y="316" type="line"/>
      <point x="33" y="240" type="line"/>
      <point x="317" y="424" type="line"/>
      <point x="317" y="500" type="line"/>
    </contour>
    <component base="l" identifier="D5926BD4"/>
  </outline>
</glyph>
<glyph name="OE" format="2">
  <advance width="760"/>
  <unicode hex="0152"/>
  <outline>
    <contour>
      <point x="395" y="700" type="line"/>
      <point x="395" y="0" type="line"/>
      <point x="482" y="0" type="line"/>
      <point x="482" y="700" type="line"/>
    </contour>
    <contour>
      <point x="430" y="618" type="line"/>
      <point x="727" y="618" type="line"/>
      <point x="727" y="700" type="line"/>
      <point x="430" y="700" type="line"/>
    </contour>
    <contour>
      <point x="440" y="315" type="line"/>
      <point x="639" y="315" type="line"/>
      <point x="639" y="396" type="line"/>
      <point x="440" y="396" type="line"/>
    </contour>
    <contour>
      <point x="434" y="0" type="line"/>
      <point x="745" y="0" type="line"/>
      <point x="745" y="82" type="line"/>
      <point x="434" y="82" type="line"/>
    </contour>
    <contour>
      <point x="254" y="712" type="curve" smooth="yes"/>
      <point x="132" y="712"/>
      <point x="34" y="594"/>
      <point x="34" y="350" type="curve" smooth="yes"/>
      <point x="34" y="121"/>
      <point x="132" y="-12"/>
      <point x="254" y="-12" type="curve" smooth="yes"/>
      <point x="379" y="-12"/>
      <point x="456" y="106"/>
      <point x="457" y="350" type="curve" smooth="yes"/>
      <point x="458" y="594"/>
      <point x="379" y="712"/>
    </contour>
    <contour>
      <point x="261" y="69" type="curve" smooth="yes"/>
      <point x="186" y="69"/>
      <point x="124" y="144"/>
      <point x="124" y="350" type="curve" smooth="yes"/>
      <point x="124" y="557"/>
      <point x="186" y="631"/>
      <point x="261" y="631" type="curve" smooth="yes"/>
      <point x="336" y="631"/>
      <point x="395" y="557"/>
      <point x="395" y="350" type="curve" smooth="yes"/>
      <point x="395" y="144"/>
      <point x="336" y="69"/>
    </contour>
  </outline>
</glyph>
<glyph name="Uogonek" format="2">
  <advance width="760"/>
  <unicode hex="0172"/>
  <outline>
    <contour>
      <point x="417" y="-196" type="curve" smooth="yes"/>
      <point x="438" y="-196"/>
      <point x="462" y="-193"/>
      <point x="485" y="-186" type="curve"/>
      <point x="485" y="-125" type="line"/>
      <point x="465" y="-130"/>
      <point x="449" y="-133"/>
      <point x="431" y="-133" type="curve" smooth="yes"/>
      <point x="401" y="-133"/>
      <point x="384" y="-123"/>
      <point x="384" y="-100" type="curve" smooth="yes"/>
      <point x="384" y="-64"/>
      <point x="424" y="-22"/>
      <point x="479" y="-1" type="curve" smooth="yes"/>
      <point x="591" y="41"/>
      <point x="656" y="127"/>
      <point x="656" y="256" type="curve" smooth="yes"/>
      <point x="656" y="700" type="line"/>
      <point x="566" y="700" type="line"/>
      <point x="566" y="264" type="line" smooth="yes"/>
      <point x="566" y="147"/>
      <point x="499" y="72"/>
      <point x="381" y="72" type="curve" smooth="yes"/>
      <point x="263" y="72"/>
      <point x="195" y="147"/>
      <point x="195" y="264" type="curve" smooth="yes"/>
      <point x="195" y="700" type="line"/>
      <point x="104" y="700" type="line"/>
      <point x="104" y="256" type="line" smooth="yes"/>
      <point x="104" y="99"/>
      <point x="213" y="-12"/>
      <point x="375" y="-12" type="curve" smooth="yes"/>
      <point x="378" y="-12"/>
      <point x="380" y="-12"/>
      <point x="382" y="-12" type="curve"/>
      <point x="380" y="-6" type="line"/>
      <point x="338" y="-33"/>
      <point x="309" y="-69"/>
      <point x="309" y="-113" type="curve" smooth="yes"/>
      <point x="309" y="-163"/>
      <point x="342" y="-196"/>
    </contour>
  </outline>
</glyph>
<glyph name="Bhook" format="2">
  <advance width="760"/>
  <unicode hex="0181"/>
  <outline>
    <contour>
      <point x="245" y="700" type="line"/>
      <point x="245" y="0" type="line"/>
      <point x="336" y="0" type="line"/>
      <point x="336" y="700" type="line"/>
    </contour>
    <contour>
      <point x="501" y="0" type="line" smooth="yes"/>
      <point x="632" y="0"/>
      <point x="716" y="87"/>
      <point x="716" y="199" type="curve" smooth="yes"/>
      <point x="716" y="294"/>
      <point x="656" y="350"/>
      <point x="595" y="374" type="curve"/>
      <point x="595" y="356" type="line"/>
      <point x="651" y="374"/>
      <point x="701" y="430"/>
      <point x="701" y="513" type="curve" smooth="yes"/>
      <point x="701" y="623"/>
      <point x="621" y="700"/>
      <point x="501" y="700" type="curve" smooth="yes"/>
      <point x="280" y="700" type="line"/>
      <point x="280" y="618" type="line"/>
      <point x="494" y="618" type="line" smooth="yes"/>
      <point x="567" y="618"/>
      <point x="613" y="576"/>
      <point x="613" y="510" type="curve" smooth="yes"/>
      <point x="613" y="444"/>
      <point x="571" y="400"/>
      <point x="498" y="400" type="curve" smooth="yes"/>
      <point x="279" y="400" type="line"/>
      <point x="279" y="318" type="line"/>
      <point x="495" y="318" type="line" smooth="yes"/>
      <point x="566" y="318"/>
      <point x="623" y="277"/>
      <point x="623" y="200" type="curve" smooth="yes"/>
      <point x="623" y="125"/>
      <point x="570" y="82"/>
      <point x="495" y="82" type="curve" smooth="yes"/>
      <point x="280" y="82" type="line"/>
      <point x="280" y="0" type="line"/>
    </contour>
    <contour>
      <point x="316" y="700" type="line"/>
      <point x="225" y="700" type="line" smooth="yes"/>
      <point x="68" y="700"/>
      <point x="13" y="600"/>
      <point x="13" y="508" type="curve" smooth="yes"/>
      <point x="13" y="457"/>
      <point x="29" y="420"/>
      <point x="44" y="390" type="curve"/>
      <point x="135" y="395" type="line"/>
      <point x="113" y="430"/>
      <point x="101" y="465"/>
      <point x="101" y="503" type="curve" smooth="yes"/>
      <point x="101" y="566"/>
      <point x="133" y="618"/>
      <point x="228" y="618" type="curve" smooth="yes"/>
      <point x="316" y="618" type="line"/>
    </contour>
  </outline>
</glyph>
<glyph name="Dhook" format="2">
  <advance width="760"/>
  <unicode hex="018A"/>
  <outline>
    <contour>
      <point x="279" y="82" type="line"/>
      <point x="279" y="0" type="line"/>
      <point x="391" y="0" type="line" smooth="yes"/>
      <point x="591" y="0"/>
      <point x="713" y="149"/>
      <point x="713" y="350" type="curve" smooth="yes"/>
      <point x="713" y="551"/>
      <point x="591" y="700"/>
      <point x="391" y="700" type="curve" smooth="yes"/>
      <point x="278" y="700" type="line"/>
      <point x="278" y="618" type="line"/>
      <point x="384" y="618" type="line" smooth="yes"/>
      <point x="535" y="618"/>
      <point x="620" y="516"/>
      <point x="620" y="350" type="curve" smooth="yes"/>
      <point x="620" y="184"/>
      <point x="535" y="82"/>
      <point x="384" y="82" type="curve" smooth="yes"/>
    </contour>
    <contour>
      <point x="245" y="0" type="line"/>
      <point x="336" y="0" type="line"/>
      <point x="336" y="700" type="line"/>
      <point x="245" y="700" type="line"/>
    </contour>
    <contour>
      <point x="316" y="700" type="line"/>
      <point x="225" y="700" type="line" smooth="yes"/>
      <point x="68" y="700"/>
      <point x="13" y="600"/>
      <point x="13" y="508" type="curve" smooth="yes"/>
      <point x="13" y="457"/>
      <point x="29" y="420"/>
      <point x="44" y="390" type="curve"/>
      <point x="135" y="395" type="line"/>
      <point x="113" y="430"/>
      <point x="101" y="465"/>
      <point x="101" y="503" type="curve" smooth="yes"/>
      <point x="101" y="566"/>
      <point x="133" y="618"/>
      <point x="228" y="618" type="curve" smooth="yes"/>
      <point x="316" y="618" type="line"/>
    </contour>
  </outline>
</glyph>
<glyph name="Eopen" format="2">
  <advance width="680"/>
  <unicode hex="0190"/>
  <outline>
    <contour>
      <point x="604" y="197" type="curve"/>
      <point x="515" y="191" type="line"/>
      <point x="517" y="121"/>
      <point x="448" y="68"/>
      <point x="339" y="68" type="curve" smooth="yes"/>
      <point x="238" y="68"/>
      <point x="162" y="115"/>
      <point x="162" y="199" type="curve" smooth="yes"/>
      <point x="162" y="267"/>
      <point x="215" y="322"/>
      <point x="318" y="322" type="curve" smooth="yes"/>
      <point x="400" y="322" type="line"/>
      <point x="400" y="402" type="line"/>
      <point x="319" y="402" type="line" smooth="yes"/>
      <point x="233" y="402"/>
      <point x="181" y="438"/>
      <point x="181" y="506" type="curve" smooth="yes"/>
      <point x="181" y="589"/>
      <point x="257" y="633"/>
      <point x="343" y="633" type="curve" smooth="yes"/>
      <point x="443" y="633"/>
      <point x="507" y="575"/>
      <point x="508" y="513" type="curve"/>
      <point x="597" y="507" type="line"/>
      <point x="599" y="631"/>
      <point x="482" y="712"/>
      <point x="341" y="712" type="curve" smooth="yes"/>
      <point x="200" y="712"/>
      <point x="88" y="628"/>
      <point x="88" y="510" type="curve" smooth="yes"/>
      <point x="88" y="423"/>
      <point x="152" y="378"/>
      <point x="209" y="362" type="curve"/>
      <point x="209" y="368" type="line"/>
      <point x="126" y="351"/>
      <point x="71" y="286"/>
      <point x="71" y="197" type="curve" smooth="yes"/>
      <point x="71" y="66"/>
      <point x="182" y="-12"/>
      <point x="341" y="-12" type="curve" smooth="yes"/>
      <point x="486" y="-12"/>
      <point x="609" y="60"/>
    </contour>
  </outline>
</glyph>
<glyph name="Nhookleft" format="2">
  <advance width="760"/>
  <unicode hex="019D"/>
  <outline>
    <contour>
      <point x="627" y="40" type="line"/>
      <point x="231" y="700" type="line"/>
      <point x="104" y="700" type="line"/>
      <point x="104" y="0" type="line"/>
      <point x="193" y="0" type="line"/>
      <point x="193" y="657" type="line"/>
      <point x="159" y="657" type="line"/>
      <point x="553" y="0" type="line"/>
      <point x="656" y="0" type="line"/>
      <point x="656" y="700" type="line"/>
      <point x="567" y="700" type="line"/>
      <point x="567" y="40" type="line"/>
    </contour>
    <contour>
      <point x="28" y="-112" type="curve" smooth="yes"/>
      <point x="18" y="-112"/>
      <point x="1" y="-111"/>
      <point x="-16" y="-106" type="curve"/>
      <point x="-16" y="-185" type="line"/>
      <point x="6" y="-190"/>
      <point x="23" y="-192"/>
      <point x="41" y="-192" type="curve" smooth="yes"/>
      <point x="124" y="-192"/>
      <point x="193" y="-148"/>
      <point x="193" y="-57" type="curve" smooth="yes"/>
      <point x="193" y="80" type="line"/>
      <point x="104" y="80" type="line"/>
      <point x="104" y="-49" type="line" smooth="yes"/>
      <point x="104" y="-95"/>
      <point x="68" y="-112"/>
    </contour>
  </outline>
</glyph>
<glyph name="Uhorn" format="2">
  <advance width="760"/>
  <unicode hex="01AF"/>
  <outline>
    <contour>
      <point x="104" y="256" type="line" smooth="yes"/>
      <point x="104" y="96"/>
      <point x="213" y="-12"/>
      <point x="381" y="-12" type="curve" smooth="yes"/>
      <point x="549" y="-12"/>
      <point x="656" y="96"/>
      <point x="656" y="256" type="curve" smooth="yes"/>
      <point x="656" y="700" type="line"/>
      <point x="566" y="700" type="line"/>
      <point x="566" y="264" type="line" smooth="yes"/>
      <point x="566" y="147"/>
      <point x="499" y="72"/>
      <point x="381" y="72" type="curve" smooth="yes"/>
      <point x="263" y="72"/>
      <point x="195" y="147"/>
      <point x="195" y="264" type="curve" smooth="yes"/>
      <point x="195" y="700" type="line"/>
      <point x="104" y="700" type="line"/>
    </contour>
    <component base="horncmb.uc" xOffset="380"/>
  </outline>
</glyph>
<glyph name="Icaron" format="2">
  <advance width="350"/>
  <unicode hex="01CF"/>
  <outline>
    <contour>
      <point x="19" y="892" type="line"/>
      <point x="130" y="771" type="line"/>
      <point x="220" y="771" type="line"/>
      <point x="331" y="892" type="line"/>
      <point x="257" y="892" type="line"/>
      <point x="149" y="808" type="line"/>
      <point x="201" y="808" type="line"/>
      <point x="93" y="892" type="line"/>
    </contour>
    <component base="I" identifier="858AC797"/>
  </outline>
</glyph>
<glyph name="Oogonek" format="2">
  <advance width="760"/>
  <unicode hex="01EA"/>
  <outline>
    <contour>
      <point x="411" y="-196" type="curve" smooth="yes"/>
      <point x="432" y="-196"/>
      <point x="456" y="-193"/>
      <point x="479" y="-186" type="curve"/>
      <point x="479" y="-125" type="line"/>
      <point x="459" y="-130"/>
      <point x="443" y="-133"/>
      <point x="425" y="-133" type="curve" smooth="yes"/>
      <point x="395" y="-133"/>
      <point x="378" y="-123"/>
      <point x="378" y="-100" type="curve" smooth="yes"/>
      <point x="378" y="-64"/>
      <point x="418" y="-22"/>
      <point x="473" y="-2" type="curve" smooth="yes"/>
      <point x="609" y="48"/>
      <point x="704" y="171"/>
      <point x="704" y="350" type="curve" smooth="yes"/>
      <point x="704" y="564"/>
      <point x="562" y="712"/>
      <point x="380" y="712" type="curve" smooth="yes"/>
      <point x="198" y="712"/>
      <point x="56" y="564"/>
      <point x="56" y="350" type="curve" smooth="yes"/>
      <point x="56" y="142"/>
      <point x="197" y="-12"/>
      <point x="372" y="-12" type="curve" smooth="yes"/>
      <point x="380" y="-12"/>
      <point x="385" y="-12"/>
      <point x="389" y="-12" type="curve"/>
      <point x="372" y="-4" type="line"/>
      <point x="327" y="-40"/>
      <point x="303" y="-70"/>
      <point x="303" y="-113" type="curve" smooth="yes"/>
      <point x="303" y="-163"/>
      <point x="336" y="-196"/>
    </contour>
    <contour>
      <point x="380" y="69" type="curve" smooth="yes"/>
      <point x="246" y="69"/>
      <point x="149" y="181"/>
      <point x="149" y="350" type="curve" smooth="yes"/>
      <point x="149" y="519"/>
      <point x="246" y="631"/>
      <point x="380" y="631" type="curve" smooth="yes"/>
      <point x="514" y="631"/>
      <point x="611" y="519"/>
      <point x="611" y="350" type="curve" smooth="yes"/>
      <point x="611" y="181"/>
      <point x="514" y="69"/>
    </contour>
  </outline>
</glyph>
<glyph name="oogonek" format="2">
  <advance width="600"/>
  <unicode hex="01EB"/>
  <outline>
    <contour>
      <point x="318" y="-196" type="curve" smooth="yes"/>
      <point x="339" y="-196"/>
      <point x="363" y="-193"/>
      <point x="386" y="-186" type="curve"/>
      <point x="386" y="-125" type="line"/>
      <point x="366" y="-130"/>
      <point x="350" y="-133"/>
      <point x="332" y="-133" type="curve" smooth="yes"/>
      <point x="302" y="-133"/>
      <point x="285" y="-123"/>
      <point x="285" y="-100" type="curve" smooth="yes"/>
      <point x="285" y="-65"/>
      <point x="322" y="-25"/>
      <point x="374" y="-5" type="curve" smooth="yes"/>
      <point x="474" y="33"/>
      <point x="543" y="114"/>
      <point x="543" y="245" type="curve" smooth="yes"/>
      <point x="543" y="403"/>
      <point x="437" y="502"/>
      <point x="300" y="502" type="curve" smooth="yes"/>
      <point x="163" y="502"/>
      <point x="57" y="403"/>
      <point x="57" y="245" type="curve" smooth="yes"/>
      <point x="57" y="97"/>
      <point x="152" y="-12"/>
      <point x="303" y="-12" type="curve"/>
      <point x="300" y="-12"/>
      <point x="307" y="-12"/>
      <point x="310" y="-12" type="curve"/>
      <point x="288" y="1" type="line"/>
      <point x="229" y="-42"/>
      <point x="210" y="-73"/>
      <point x="210" y="-113" type="curve" smooth="yes"/>
      <point x="210" y="-163"/>
      <point x="243" y="-196"/>
    </contour>
    <contour>
      <point x="300" y="432" type="curve" smooth="yes"/>
      <point x="395" y="432"/>
      <point x="454" y="360"/>
      <point x="454" y="245" type="curve" smooth="yes"/>
      <point x="454" y="130"/>
      <point x="395" y="58"/>
      <point x="300" y="58" type="curve" smooth="yes"/>
      <point x="205" y="58"/>
      <point x="146" y="130"/>
      <point x="146" y="245" type="curve" smooth="yes"/>
      <point x="146" y="360"/>
      <point x="205" y="432"/>
    </contour>
  </outline>
</glyph>
<glyph name="bhook" format="2">
  <advance width="600"/>
  <unicode hex="0253"/>
  <outline>
    <contour>
      <point x="314" y="58" type="curve" smooth="yes"/>
      <point x="222" y="58"/>
      <point x="171" y="130"/>
      <point x="171" y="245" type="curve" smooth="yes"/>
      <point x="171" y="360"/>
      <point x="222" y="432"/>
      <point x="314" y="432" type="curve" smooth="yes"/>
      <point x="406" y="432"/>
      <point x="457" y="360"/>
      <point x="457" y="245" type="curve" smooth="yes"/>
      <point x="457" y="130"/>
      <point x="406" y="58"/>
    </contour>
    <contour>
      <point x="89" y="581" type="curve" smooth="yes"/>
      <point x="89" y="0" type="line"/>
      <point x="177" y="0" type="line"/>
      <point x="177" y="117" type="line"/>
      <point x="148" y="117" type="line"/>
      <point x="187" y="32"/>
      <point x="256" y="-12"/>
      <point x="343" y="-12" type="curve" smooth="yes"/>
      <point x="453" y="-12"/>
      <point x="546" y="76"/>
      <point x="546" y="244" type="curve" smooth="yes"/>
      <point x="546" y="411"/>
      <point x="453" y="502"/>
      <point x="343" y="502" type="curve" smooth="yes"/>
      <point x="256" y="502"/>
      <point x="187" y="457"/>
      <point x="148" y="371" type="curve"/>
      <point x="177" y="371" type="line"/>
      <point x="177" y="576" type="line" smooth="yes"/>
      <point x="177" y="618"/>
      <point x="200" y="631"/>
      <point x="232" y="631" type="curve" smooth="yes"/>
      <point x="249" y="631"/>
      <point x="272" y="626"/>
      <point x="289" y="619" type="curve"/>
      <point x="292" y="692" type="line"/>
      <point x="274" y="700"/>
      <point x="245" y="706"/>
      <point x="217" y="706" type="curve" smooth="yes"/>
      <point x="135" y="706"/>
      <point x="89" y="654"/>
    </contour>
  </outline>
</glyph>
<glyph name="hungarumlautcmb" format="2">
  <advance width="600"/>
  <unicode hex="030B"/>
  <guideline x="266" y="570" angle="90" name="center"/>
  <outline>
    <contour>
      <point x="218" y="700" type="line"/>
      <point x="162" y="570" type="line"/>
      <point x="232" y="570" type="line"/>
      <point x="300" y="700" type="line"/>
    </contour>
    <contour>
      <point x="352" y="700" type="line"/>
      <point x="296" y="570" type="line"/>
      <point x="366" y="570" type="line"/>
      <point x="434" y="700" type="line"/>
    </contour>
  </outline>
</glyph>
<glyph name="commaturnedabovecmb" format="2">
  <advance width="600"/>
  <unicode hex="0312"/>
  <outline>
    <contour>
      <point x="348" y="597" type="line"/>
      <point x="348" y="700" type="line"/>
      <point x="302" y="700" type="line"/>
      <point x="302" y="706" type="line" smooth="yes"/>
      <point x="302" y="736"/>
      <point x="322" y="756"/>
      <point x="360" y="756" type="curve"/>
      <point x="360" y="801" type="line"/>
      <point x="272" y="801"/>
      <point x="252" y="739"/>
      <point x="252" y="706" type="curve" smooth="yes"/>
      <point x="252" y="597" type="line"/>
    </contour>
  </outline>
</glyph>
<glyph name="cedillacmb" format="2">
  <advance width="600"/>
  <unicode hex="0327"/>
  <outline>
    <contour>
      <point x="176" y="-207" type="line"/>
      <point x="199" y="-215"/>
      <point x="234" y="-223"/>
      <point x="274" y="-223" type="curve" smooth="yes"/>
      <point x="366" y="-223"/>
      <point x="413" y="-181"/>
      <point x="413" y="-128" type="curve" smooth="yes"/>
      <point x="413" y="-80"/>
      <point x="372" y="-50"/>
      <point x="311" y="-50" type="curve" smooth="yes"/>
      <point x="291" y="-50"/>
      <point x="272" y="-53"/>
      <point x="246" y="-64" type="curve"/>
      <point x="272" y="-81" type="line"/>
      <point x="328" y="0" type="line"/>
      <point x="266" y="0" type="line"/>
      <point x="209" y="-82" type="line"/>
      <point x="229" y="-114" type="line"/>
      <point x="245" y="-109"/>
      <point x="260" y="-106"/>
      <point x="282" y="-106" type="curve" smooth="yes"/>
      <point x="300" y="-106"/>
      <point x="339" y="-107"/>
      <point x="339" y="-131" type="curve" smooth="yes"/>
      <point x="339" y="-152"/>
      <point x="310" y="-165"/>
      <point x="267" y="-165" type="curve" smooth="yes"/>
      <point x="235" y="-165"/>
      <point x="206" y="-158"/>
      <point x="176" y="-148" type="curve"/>
    </contour>
  </outline>
</glyph>
<glyph name="lmacrondot" format="2">
  <advance width="350"/>
  <unicode hex="1E39"/>
  <outline>
    <contour>
      <point x="38" y="776" type="line"/>
      <point x="312" y="776" type="line"/>
      <point x="312" y="844" type="line"/>
      <point x="38" y="844" type="line"/>
    </contour>
    <component base="l" identifier="EFCFBE90"/>
    <component base="dotbelowcmb" xOffset="-125" identifier="EBA981BD"/>
  </outline>
</glyph>
<glyph name="rlinebelow" format="2">
  <advance width="350"/>
  <unicode hex="1E5F"/>
  <outline>
    <contour>
      <point x="10" y="-86" type="line"/>
      <point x="218" y="-86" type="line"/>
      <point x="218" y="-152" type="line"/>
      <point x="10" y="-152" type="line"/>
    </contour>
    <component base="r" identifier="197C3E62"/>
  </outline>
</glyph>
<glyph name="dagger" format="2">
  <advance width="350"/>
  <unicode hex="2020"/>
  <outline>
    <contour>
      <point x="139" y="290" type="line"/>
      <point x="211" y="290" type="line"/>
      <point x="211" y="700" type="line"/>
      <point x="139" y="700" type="line"/>
    </contour>
    <contour>
      <point x="39" y="591" type="line"/>
      <point x="39" y="524" type="line"/>
      <point x="311" y="524" type="line"/>
      <point x="311" y="591" type="line"/>
    </contour>
  </outline>
</glyph>
<glyph name="bullet" format="2">
  <advance width="600"/>
  <unicode hex="2022"/>
  <outline>
    <contour>
      <point x="300" y="484" type="curve" smooth="yes"/>
      <point x="204" y="484"/>
      <point x="125" y="405"/>
      <point x="125" y="309" type="curve" smooth="yes"/>
      <point x="125" y="213"/>
      <point x="204" y="134"/>
      <point x="300" y="134" type="curve" smooth="yes"/>
      <point x="396" y="134"/>
      <point x="475" y="213"/>
      <point x="475" y="309" type="curve" smooth="yes"/>
      <point x="475" y="405"/>
      <point x="396" y="484"/>
    </contour>
  </outline>
</glyph>
<glyph name="ellipsis" format="2">
  <advance width="760"/>
  <unicode hex="2026"/>
  <outline>
    <contour>
      <point x="70" y="134" type="line"/>
      <point x="70" y="0" type="line"/>
      <point x="184" y="0" type="line"/>
      <point x="184" y="134" type="line"/>
    </contour>
    <contour>
      <point x="323" y="134" type="line"/>
      <point x="323" y="0" type="line"/>
      <point x="437" y="0" type="line"/>
      <point x="437" y="134" type="line"/>
    </contour>
    <contour>
      <point x="576" y="134" type="line"/>
      <point x="576" y="0" type="line"/>
      <point x="690" y="0" type="line"/>
      <point x="690" y="134" type="line"/>
    </contour>
  </outline>
</glyph>
<glyph name="perthousand" format="2">
  <advance width="760"/>
  <unicode hex="2030"/>
  <outline>
    <contour>
      <point x="58" y="190" type="line"/>
      <point x="696" y="553" type="line"/>
      <point x="696" y="621" type="line"/>
      <point x="58" y="258" type="line"/>
    </contour>
    <contour>
      <point x="58" y="554" type="curve" smooth="yes"/>
      <point x="58" y="464"/>
      <point x="105" y="402"/>
      <point x="182" y="402" type="curve" smooth="yes"/>
      <point x="257" y="402"/>
      <point x="305" y="465"/>
      <point x="305" y="554" type="curve" smooth="yes"/>
      <point x="305" y="642"/>
      <point x="257" y="705"/>
      <point x="182" y="705" type="curve" smooth="yes"/>
      <point x="105" y="705"/>
      <point x="58" y="642"/>
    </contour>
    <contour>
      <point x="121" y="554" type="curve" smooth="yes"/>
      <point x="121" y="615"/>
      <point x="146" y="648"/>
      <point x="182" y="648" type="curve" smooth="yes"/>
      <point x="216" y="648"/>
      <point x="242" y="614"/>
      <point x="242" y="554" type="curve" smooth="yes"/>
      <point x="242" y="491"/>
      <point x="216" y="459"/>
      <point x="182" y="459" type="curve" smooth="yes"/>
      <point x="146" y="459"/>
      <point x="121" y="491"/>
    </contour>
    <contour>
      <point x="210" y="128" type="curve" smooth="yes"/>
      <point x="210" y="50"/>
      <point x="251" y="-5"/>
      <point x="319" y="-5" type="curve" smooth="yes"/>
      <point x="387" y="-5"/>
      <point x="430" y="50"/>
      <point x="430" y="128" type="curve" smooth="yes"/>
      <point x="430" y="205"/>
      <point x="387" y="262"/>
      <point x="319" y="262" type="curve" smooth="yes"/>
      <point x="251" y="262"/>
      <point x="210" y="205"/>
    </contour>
    <contour>
      <point x="273" y="128" type="curve" smooth="yes"/>
      <point x="273" y="178"/>
      <point x="292" y="205"/>
      <point x="319" y="205" type="curve" smooth="yes"/>
      <point x="346" y="205"/>
      <point x="367" y="178"/>
      <point x="367" y="128" type="curve" smooth="yes"/>
      <point x="367" y="77"/>
      <point x="346" y="52"/>
      <point x="319" y="52" type="curve" smooth="yes"/>
      <point x="292" y="52"/>
      <point x="273" y="77"/>
    </contour>
    <contour>
      <point x="483" y="128" type="curve" smooth="yes"/>
      <point x="483" y="50"/>
      <point x="525" y="-5"/>
      <point x="592" y="-5" type="curve" smooth="yes"/>
      <point x="660" y="-5"/>
      <point x="703" y="50"/>
      <point x="703" y="128" type="curve" smooth="yes"/>
      <point x="703" y="205"/>
      <point x="660" y="262"/>
      <point x="592" y="262" type="curve" smooth="yes"/>
      <point x="525" y="262"/>
      <point x="483" y="205"/>
    </contour>
    <contour>
      <point x="546" y="128" type="curve" smooth="yes"/>
      <point x="546" y="178"/>
      <point x="566" y="205"/>
      <point x="592" y="205" type="curve" smooth="yes"/>
      <point x="619" y="205"/>
      <point x="640" y="178"/>
      <point x="640" y="128" type="curve" smooth="yes"/>
      <point x="640" y="77"/>
      <point x="619" y="52"/>
      <point x="592" y="52" type="curve" smooth="yes"/>
      <point x="566" y="52"/>
      <point x="546" y="77"/>
    </contour>
  </outline>
</glyph>
<glyph name="minute" format="2">
  <advance width="350"/>
  <unicode hex="2032"/>
  <outline>
    <contour>
      <point x="145" y="700" type="line"/>
      <point x="96" y="412" type="line"/>
      <point x="163" y="412" type="line"/>
      <point x="254" y="700" type="line"/>
    </contour>
  </outline>
</glyph>
<glyph name="guilsinglleft" format="2">
  <advance width="350"/>
  <unicode hex="2039"/>
  <outline>
    <contour>
      <point x="293" y="450" type="line"/>
      <point x="197" y="450" type="line"/>
      <point x="57" y="276" type="line"/>
      <point x="57" y="234" type="line"/>
      <point x="197" y="60" type="line"/>
      <point x="293" y="60" type="line"/>
      <point x="116" y="280" type="line"/>
      <point x="116" y="230" type="line"/>
    </contour>
  </outline>
</glyph>
<glyph name="guilsinglright" format="2">
  <advance width="350"/>
  <unicode hex="203A"/>
  <outline>
    <contour>
      <point x="57" y="60" type="line"/>
      <point x="153" y="60" type="line"/>
      <point x="293" y="234" type="line"/>
      <point x="293" y="276" type="line"/>
      <point x="153" y="450" type="line"/>
      <point x="57" y="450" type="line"/>
      <point x="234" y="230" type="line"/>
      <point x="234" y="280" type="line"/>
    </contour>
  </outline>
</glyph>
<glyph name="fraction" format="2">
  <advance width="350"/>
  <unicode hex="2044"/>
  <outline>
    <contour>
      <point x="67" y="0" type="line"/>
      <point x="149" y="0" type="line"/>
      <point x="693" y="700" type="line"/>
      <point x="611" y="700" type="line"/>
    </contour>
  </outline>
</glyph>
<glyph name="trademark" format="2">
  <advance width="760"/>
  <unicode hex="2122"/>
  <outline>
    <contour>
      <point x="127" y="677" type="line"/>
      <point x="193" y="677" type="line"/>
      <point x="194" y="350" type="line"/>
      <point x="127" y="350" type="line"/>
    </contour>
    <contour>
      <point x="22" y="642" type="line"/>
      <point x="22" y="700" type="line"/>
      <point x="299" y="700" type="line"/>
      <point x="299" y="642" type="line"/>
    </contour>
    <contour>
      <point x="401" y="657" type="line"/>
      <point x="511" y="350" type="line"/>
      <point x="541" y="350" type="line"/>
      <point x="651" y="656" type="line"/>
      <point x="635" y="656" type="line"/>
      <point x="635" y="350" type="line"/>
      <point x="699" y="350" type="line"/>
      <point x="699" y="700" type="line"/>
      <point x="610" y="700" type="line"/>
      <point x="511" y="420" type="line"/>
      <point x="545" y="417" type="line"/>
      <point x="446" y="700" type="line"/>
      <point x="355" y="700" type="line"/>
      <point x="355" y="350" type="line"/>
      <point x="417" y="350" type="line"/>
      <point x="417" y="657" type="line"/>
    </contour>
  </outline>
</glyph>
<glyph name="fivesanscircled" format="2">
  <advance width="760"/>
  <unicode hex="2784"/>
  <outline>
    <contour>
      <point x="232" y="276" type="line"/>
      <point x="235" y="196"/>
      <point x="290" y="148"/>
      <point x="373" y="148" type="curve" smooth="yes"/>
      <point x="458" y="148"/>
      <point x="511" y="202"/>
      <point x="511" y="286" type="curve" smooth="yes"/>
      <point x="511" y="362"/>
      <point x="468" y="420"/>
      <point x="394" y="420" type="curve" smooth="yes"/>
      <point x="363" y="420"/>
      <point x="338" y="409"/>
      <point x="320" y="393" type="curve"/>
      <point x="328" y="484" type="line"/>
      <point x="499" y="484" type="line"/>
      <point x="499" y="546" type="line"/>
      <point x="267" y="546" type="line"/>
      <point x="248" y="322" type="line"/>
      <point x="315" y="317" type="line"/>
      <point x="326" y="345"/>
      <point x="347" y="363"/>
      <point x="376" y="363" type="curve" smooth="yes"/>
      <point x="413" y="363"/>
      <point x="437" y="333"/>
      <point x="437" y="286" type="curve" smooth="yes"/>
      <point x="437" y="236"/>
      <point x="410" y="207"/>
      <point x="373" y="207" type="curve" smooth="yes"/>
      <point x="337" y="207"/>
      <point x="314" y="233"/>
      <point x="313" y="267" type="curve"/>
    </contour>
    <component base="circlewhite" identifier="40E53845"/>
  </outline>
</glyph>
<glyph name="sevensanscircled" format="2">
  <advance width="760"/>
  <unicode hex="2786"/>
  <outline>
    <contour>
      <point x="247" y="546" type="line"/>
      <point x="247" y="404" type="line"/>
      <point x="318" y="404" type="line"/>
      <point x="318" y="484" type="line"/>
      <point x="456" y="484" type="line"/>
      <point x="383" y="381"/>
      <point x="311" y="270"/>
      <point x="306" y="154" type="curve"/>
      <point x="384" y="154" type="line"/>
      <point x="394" y="284"/>
      <point x="472" y="399"/>
      <point x="542" y="508" type="curve"/>
      <point x="542" y="546" type="line"/>
    </contour>
    <component base="circlewhite" identifier="292DE401"/>
  </outline>
</glyph>
<glyph name="tensanscircled" format="2">
  <advance width="760"/>
  <unicode hex="2789"/>
  <outline>
    <contour>
      <point x="224" y="546" type="line"/>
      <point x="224" y="485"/>
      <point x="205" y="464"/>
      <point x="135" y="464" type="curve"/>
      <point x="135" y="410" type="line"/>
      <point x="215" y="410" type="line"/>
      <point x="215" y="154" type="line"/>
      <point x="290" y="154" type="line"/>
      <point x="290" y="546" type="line"/>
    </contour>
    <contour>
      <point x="478" y="552" type="curve" smooth="yes"/>
      <point x="388" y="552"/>
      <point x="342" y="473"/>
      <point x="342" y="349" type="curve" smooth="yes"/>
      <point x="342" y="225"/>
      <point x="388" y="147"/>
      <point x="478" y="147" type="curve" smooth="yes"/>
      <point x="567" y="147"/>
      <point x="613" y="225"/>
      <point x="613" y="349" type="curve" smooth="yes"/>
      <point x="613" y="473"/>
      <point x="567" y="552"/>
    </contour>
    <contour>
      <point x="478" y="208" type="curve" smooth="yes"/>
      <point x="432" y="208"/>
      <point x="417" y="266"/>
      <point x="417" y="349" type="curve" smooth="yes"/>
      <point x="417" y="432"/>
      <point x="432" y="490"/>
      <point x="478" y="490" type="curve" smooth="yes"/>
      <point x="524" y="490"/>
      <point x="538" y="432"/>
      <point x="538" y="349" type="curve" smooth="yes"/>
      <point x="538" y="266"/>
      <point x="524" y="208"/>
    </contour>
    <component base="circlewhite" identifier="1B28F1F0"/>
  </outline>
</glyph>
<glyph name="threesansnegativecircled" format="2">
  <advance width="760"/>
  <unicode hex="278C"/>
  <outline>
    <contour>
      <point x="238" y="278" type="curve"/>
      <point x="312" y="273" type="line"/>
      <point x="307" y="239"/>
      <point x="333" y="208"/>
      <point x="380" y="208" type="curve" smooth="yes"/>
      <point x="423" y="208"/>
      <point x="449" y="233"/>
      <point x="449" y="269" type="curve" smooth="yes"/>
      <point x="449" y="301"/>
      <point x="426" y="326"/>
      <point x="379" y="326" type="curve" smooth="yes"/>
      <point x="349" y="326" type="line"/>
      <point x="349" y="386" type="line"/>
      <point x="379" y="386" type="line" smooth="yes"/>
      <point x="416" y="386"/>
      <point x="439" y="407"/>
      <point x="439" y="437" type="curve" smooth="yes"/>
      <point x="439" y="463"/>
      <point x="421" y="492"/>
      <point x="380" y="492" type="curve" smooth="yes"/>
      <point x="341" y="492"/>
      <point x="312" y="466"/>
      <point x="316" y="429" type="curve"/>
      <point x="242" y="424" type="line"/>
      <point x="235" y="505"/>
      <point x="300" y="552"/>
      <point x="381" y="552" type="curve" smooth="yes"/>
      <point x="464" y="552"/>
      <point x="513" y="500"/>
      <point x="513" y="440" type="curve" smooth="yes"/>
      <point x="513" y="393"/>
      <point x="484" y="369"/>
      <point x="453" y="359" type="curve"/>
      <point x="497" y="348"/>
      <point x="523" y="316"/>
      <point x="523" y="268" type="curve" smooth="yes"/>
      <point x="523" y="196"/>
      <point x="465" y="148"/>
      <point x="380" y="148" type="curve" smooth="yes"/>
      <point x="297" y="148"/>
      <point x="232" y="191"/>
    </contour>
    <component base="circleblack" identifier="3E8EF009"/>
  </outline>
</glyph>
<glyph name="foursansnegativecircled" format="2">
  <advance width="760"/>
  <unicode hex="278D"/>
  <outline>
    <contour>
      <point x="460" y="546" type="line"/>
      <point x="460" y="306" type="line"/>
      <point x="527" y="306" type="line"/>
      <point x="527" y="245" type="line"/>
      <point x="460" y="245" type="line"/>
      <point x="460" y="154" type="line"/>
      <point x="387" y="154" type="line"/>
      <point x="387" y="245" type="line"/>
      <point x="205" y="245" type="line"/>
      <point x="205" y="308" type="line"/>
      <point x="382" y="546" type="line"/>
    </contour>
    <contour>
      <point x="279" y="306" type="line"/>
      <point x="387" y="306" type="line"/>
      <point x="387" y="452" type="line"/>
    </contour>
    <component base="circleblack" identifier="4067783C"/>
  </outline>
</glyph>
<glyph name="fivesansnegativecircled" format="2">
  <advance width="760"/>
  <unicode hex="278E"/>
  <outline>
    <contour>
      <point x="232" y="276" type="curve"/>
      <point x="313" y="267" type="line"/>
      <point x="314" y="233"/>
      <point x="337" y="207"/>
      <point x="373" y="207" type="curve" smooth="yes"/>
      <point x="410" y="207"/>
      <point x="437" y="236"/>
      <point x="437" y="286" type="curve" smooth="yes"/>
      <point x="437" y="333"/>
      <point x="413" y="363"/>
      <point x="376" y="363" type="curve" smooth="yes"/>
      <point x="347" y="363"/>
      <point x="326" y="345"/>
      <point x="315" y="317" type="curve"/>
      <point x="248" y="322" type="line"/>
      <point x="267" y="546" type="line"/>
      <point x="499" y="546" type="line"/>
      <point x="499" y="484" type="line"/>
      <point x="328" y="484" type="line"/>
      <point x="320" y="393" type="line"/>
      <point x="338" y="409"/>
      <point x="363" y="420"/>
      <point x="394" y="420" type="curve" smooth="yes"/>
      <point x="468" y="420"/>
      <point x="511" y="362"/>
      <point x="511" y="286" type="curve" smooth="yes"/>
      <point x="511" y="202"/>
      <point x="458" y="148"/>
      <point x="373" y="148" type="curve" smooth="yes"/>
      <point x="290" y="148"/>
      <point x="235" y="196"/>
    </contour>
    <component base="circleblack" identifier="1CA79A10"/>
  </outline>
</glyph>
<glyph name="sixsansnegativecircled" format="2">
  <advance width="760"/>
  <unicode hex="278F"/>
  <outline>
    <contour>
      <point x="376" y="148" type="curve" smooth="yes"/>
      <point x="328" y="148"/>
      <point x="288" y="167"/>
      <point x="263" y="204" type="curve" smooth="yes"/>
      <point x="242" y="237"/>
      <point x="233" y="276"/>
      <point x="233" y="339" type="curve" smooth="yes"/>
      <point x="233" y="468"/>
      <point x="297" y="552"/>
      <point x="390" y="552" type="curve" smooth="yes"/>
      <point x="467" y="552"/>
      <point x="506" y="502"/>
      <point x="509" y="437" type="curve"/>
      <point x="436" y="445" type="line"/>
      <point x="436" y="473"/>
      <point x="417" y="491"/>
      <point x="389" y="491" type="curve" smooth="yes"/>
      <point x="350" y="491"/>
      <point x="315" y="451"/>
      <point x="310" y="377" type="curve"/>
      <point x="330" y="401"/>
      <point x="361" y="415"/>
      <point x="395" y="415" type="curve" smooth="yes"/>
      <point x="461" y="415"/>
      <point x="515" y="365"/>
      <point x="515" y="285" type="curve" smooth="yes"/>
      <point x="515" y="211"/>
      <point x="465" y="148"/>
    </contour>
    <contour>
      <point x="376" y="207" type="curve" smooth="yes"/>
      <point x="417" y="207"/>
      <point x="441" y="241"/>
      <point x="441" y="282" type="curve" smooth="yes"/>
      <point x="441" y="323"/>
      <point x="417" y="357"/>
      <point x="376" y="357" type="curve" smooth="yes"/>
      <point x="335" y="357"/>
      <point x="311" y="323"/>
      <point x="311" y="282" type="curve" smooth="yes"/>
      <point x="311" y="241"/>
      <point x="335" y="207"/>
    </contour>
    <component base="circleblack" identifier="ED17BDBB"/>
  </outline>
</glyph>
<glyph name="sevensansnegativecircled" format="2">
  <advance width="760"/>
  <unicode hex="2790"/>
  <outline>
    <contour>
      <point x="247" y="546" type="line"/>
      <point x="542" y="546" type="line"/>
      <point x="542" y="508" type="line"/>
      <point x="472" y="399"/>
      <point x="394" y="284"/>
      <point x="384" y="154" type="curve"/>
      <point x="306" y="154" type="line"/>
      <point x="311" y="270"/>
      <point x="383" y="381"/>
      <point x="456" y="484" type="curve"/>
      <point x="318" y="484" type="line"/>
      <point x="318" y="404" type="line"/>
      <point x="247" y="404" type="line"/>
    </contour>
    <component base="circleblack" identifier="32163AFA"/>
  </outline>
</glyph>
<glyph name="tensansnegativecircled" format="2">
  <advance width="760"/>
  <unicode hex="2793"/>
  <outline>
    <contour>
      <point x="478" y="553" type="curve" smooth="yes"/>
      <point x="567" y="553"/>
      <point x="613" y="474"/>
      <point x="613" y="350" type="curve" smooth="yes"/>
      <point x="613" y="226"/>
      <point x="567" y="148"/>
      <point x="478" y="148" type="curve" smooth="yes"/>
      <point x="388" y="148"/>
      <point x="342" y="226"/>
      <point x="342" y="350" type="curve" smooth="yes"/>
      <point x="342" y="474"/>
      <point x="388" y="553"/>
    </contour>
    <contour>
      <point x="478" y="209" type="curve" smooth="yes"/>
      <point x="524" y="209"/>
      <point x="538" y="267"/>
      <point x="538" y="350" type="curve" smooth="yes"/>
      <point x="538" y="433"/>
      <point x="524" y="491"/>
      <point x="478" y="491" type="curve" smooth="yes"/>
      <point x="432" y="491"/>
      <point x="417" y="433"/>
      <point x="417" y="350" type="curve" smooth="yes"/>
      <point x="417" y="267"/>
      <point x="432" y="209"/>
    </contour>
    <contour>
      <point x="224" y="547" type="curve"/>
      <point x="290" y="547" type="line"/>
      <point x="290" y="155" type="line"/>
      <point x="215" y="155" type="line"/>
      <point x="215" y="411" type="line"/>
      <point x="135" y="411" type="line"/>
      <point x="135" y="465" type="line"/>
      <point x="205" y="465"/>
      <point x="224" y="486"/>
    </contour>
    <component base="circleblack" identifier="44DA39E6"/>
  </outline>
</glyph>
<glyph name="Euro.tab" format="2">
  <advance width="600"/>
  <outline>
    <contour>
      <point x="559" y="486" type="line"/>
      <point x="534" y="620"/>
      <point x="464" y="712"/>
      <point x="345" y="712" type="curve" smooth="yes"/>
      <point x="194" y="712"/>
      <point x="99" y="569"/>
      <point x="99" y="350" type="curve" smooth="yes"/>
      <point x="99" y="131"/>
      <point x="194" y="-12"/>
      <point x="345" y="-12" type="curve" smooth="yes"/>
      <point x="464" y="-12"/>
      <point x="537" y="81"/>
      <point x="560" y="216" type="curve"/>
      <point x="480" y="232" type="line"/>
      <point x="466" y="142"/>
      <point x="427" y="64"/>
      <point x="345" y="64" type="curve" smooth="yes"/>
      <point x="242" y="64"/>
      <point x="189" y="174"/>
      <point x="189" y="350" type="curve" smooth="yes"/>
      <point x="189" y="526"/>
      <point x="242" y="636"/>
      <point x="345" y="636" type="curve" smooth="yes"/>
      <point x="427" y="636"/>
      <point x="465" y="561"/>
      <point x="479" y="470" type="curve"/>
    </contour>
    <contour>
      <point x="39" y="248" type="line"/>
      <point x="331" y="248" type="line"/>
      <point x="346" y="318" type="line"/>
      <point x="39" y="318" type="line"/>
    </contour>
    <contour>
      <point x="39" y="388" type="line"/>
      <point x="361" y="388" type="line"/>
      <point x="376" y="458" type="line"/>
      <point x="39" y="458" type="line"/>
    </contour>
  </outline>
</glyph>
<glyph name="acutecmb.uc" format="2">
  <advance width="600"/>
  <outline>
    <contour>
      <point x="307" y="892" type="line"/>
      <point x="398" y="892" type="line"/>
      <point x="300" y="771" type="line"/>
      <point x="232" y="771" type="line"/>
    </contour>
  </outline>
</glyph>
<glyph name="bitcoin.tab" format="2">
  <advance width="600"/>
  <outline>
    <contour>
      <point x="89" y="700" type="line"/>
      <point x="89" y="0" type="line"/>
      <point x="177" y="0" type="line"/>
      <point x="177" y="700" type="line"/>
    </contour>
    <contour>
      <point x="338" y="0" type="line" smooth="yes"/>
      <point x="469" y="0"/>
      <point x="550" y="87"/>
      <point x="550" y="199" type="curve" smooth="yes"/>
      <point x="550" y="294"/>
      <point x="488" y="350"/>
      <point x="426" y="374" type="curve"/>
      <point x="426" y="356" type="line"/>
      <point x="483" y="374"/>
      <point x="535" y="430"/>
      <point x="535" y="513" type="curve" smooth="yes"/>
      <point x="535" y="623"/>
      <point x="458" y="700"/>
      <point x="338" y="700" type="curve" smooth="yes"/>
      <point x="124" y="700" type="line"/>
      <point x="124" y="621" type="line"/>
      <point x="331" y="621" type="line" smooth="yes"/>
      <point x="404" y="621"/>
      <point x="450" y="576"/>
      <point x="450" y="510" type="curve" smooth="yes"/>
      <point x="450" y="444"/>
      <point x="408" y="398"/>
      <point x="335" y="398" type="curve" smooth="yes"/>
      <point x="123" y="398" type="line"/>
      <point x="123" y="320" type="line"/>
      <point x="332" y="320" type="line" smooth="yes"/>
      <point x="403" y="320"/>
      <point x="460" y="277"/>
      <point x="460" y="200" type="curve" smooth="yes"/>
      <point x="460" y="125"/>
      <point x="407" y="79"/>
      <point x="332" y="79" type="curve" smooth="yes"/>
      <point x="124" y="79" type="line"/>
      <point x="124" y="0" type="line"/>
    </contour>
    <contour>
      <point x="206" y="668" type="line"/>
      <point x="271" y="668" type="line"/>
      <point x="271" y="797" type="line"/>
      <point x="206" y="797" type="line"/>
    </contour>
    <contour>
      <point x="313" y="668" type="line"/>
      <point x="378" y="668" type="line"/>
      <point x="378" y="797" type="line"/>
      <point x="313" y="797" type="line"/>
    </contour>
    <contour>
      <point x="206" y="-112" type="line"/>
      <point x="271" y="-112" type="line"/>
      <point x="271" y="17" type="line"/>
      <point x="206" y="17" type="line"/>
    </contour>
    <contour>
      <point x="313" y="-112" type="line"/>
      <point x="378" y="-112" type="line"/>
      <point x="378" y="17" type="line"/>
      <point x="313" y="17" type="line"/>
    </contour>
  </outline>
</glyph>
<glyph name="colon.tab" format="2">
  <advance width="600"/>
  <outline>
    <contour>
      <point x="237" y="149" type="line"/>
      <point x="237" y="0" type="line"/>
      <point x="363" y="0" type="line"/>
      <point x="363" y="149" type="line"/>
    </contour>
    <contour>
      <point x="237" y="490" type="line"/>
      <point x="237" y="341" type="line"/>
      <point x="363" y="341" type="line"/>
      <point x="363" y="490" type="line"/>
    </contour>
  </outline>
</glyph>
<glyph name="colonmonetary.tab" format="2">
  <advance width="600"/>
  <outline>
    <contour>
      <point x="542" y="486" type="line"/>
      <point x="516" y="620"/>
      <point x="445" y="712"/>
      <point x="323" y="712" type="curve" smooth="yes"/>
      <point x="169" y="712"/>
      <point x="71" y="569"/>
      <point x="71" y="350" type="curve" smooth="yes"/>
      <point x="71" y="131"/>
      <point x="169" y="-12"/>
      <point x="323" y="-12" type="curve" smooth="yes"/>
      <point x="445" y="-12"/>
      <point x="519" y="81"/>
      <point x="543" y="216" type="curve"/>
      <point x="467" y="232" type="line"/>
      <point x="452" y="141"/>
      <point x="410" y="59"/>
      <point x="323" y="59" type="curve" smooth="yes"/>
      <point x="214" y="59"/>
      <point x="155" y="173"/>
      <point x="155" y="350" type="curve" smooth="yes"/>
      <point x="155" y="527"/>
      <point x="214" y="641"/>
      <point x="323" y="641" type="curve" smooth="yes"/>
      <point x="410" y="641"/>
      <point x="451" y="562"/>
      <point x="466" y="470" type="curve"/>
    </contour>
    <contour>
      <point x="181" y="-112" type="line"/>
      <point x="244" y="-112" type="line"/>
      <point x="327" y="797" type="line"/>
      <point x="264" y="797" type="line"/>
    </contour>
    <contour>
      <point x="284" y="-112" type="line"/>
      <point x="347" y="-112" type="line"/>
      <point x="430" y="797" type="line"/>
      <point x="367" y="797" type="line"/>
    </contour>
  </outline>
</glyph>
<glyph name="dollar.tab" format="2">
  <advance width="600"/>
  <outline>
    <contour>
      <point x="71" y="197" type="curve"/>
      <point x="160" y="190" type="line"/>
      <point x="168" y="121"/>
      <point x="222" y="62"/>
      <point x="313" y="62" type="curve" smooth="yes"/>
      <point x="396" y="62"/>
      <point x="448" y="110"/>
      <point x="448" y="185" type="curve" smooth="yes"/>
      <point x="448" y="254"/>
      <point x="403" y="288"/>
      <point x="336" y="306" type="curve" smooth="yes"/>
      <point x="268" y="324" type="line" smooth="yes"/>
      <point x="153" y="354"/>
      <point x="89" y="405"/>
      <point x="89" y="513" type="curve" smooth="yes"/>
      <point x="89" y="633"/>
      <point x="170" y="712"/>
      <point x="298" y="712" type="curve" smooth="yes"/>
      <point x="431" y="712"/>
      <point x="505" y="614"/>
      <point x="514" y="524" type="curve"/>
      <point x="430" y="530" type="line"/>
      <point x="424" y="585"/>
      <point x="376" y="638"/>
      <point x="297" y="638" type="curve" smooth="yes"/>
      <point x="220" y="638"/>
      <point x="169" y="586"/>
      <point x="169" y="518" type="curve" smooth="yes"/>
      <point x="169" y="459"/>
      <point x="207" y="428"/>
      <point x="289" y="405" type="curve" smooth="yes"/>
      <point x="357" y="386" type="line" smooth="yes"/>
      <point x="473" y="354"/>
      <point x="530" y="295"/>
      <point x="530" y="191" type="curve" smooth="yes"/>
      <point x="530" y="72"/>
      <point x="455" y="-12"/>
      <point x="314" y="-12" type="curve" smooth="yes"/>
      <point x="161" y="-12"/>
      <point x="81" y="87"/>
    </contour>
    <contour>
      <point x="269" y="-113" type="line"/>
      <point x="269" y="353" type="line"/>
      <point x="272" y="384" type="line"/>
      <point x="272" y="799" type="line"/>
      <point x="338" y="799" type="line"/>
      <point x="338" y="366" type="line"/>
      <point x="335" y="342" type="line"/>
      <point x="335" y="-113" type="line"/>
    </contour>
  </outline>
</glyph>
<glyph name="dotaccentcmb.uc" format="2">
  <advance width="600"/>
  <outline>
    <contour>
      <point x="250" y="878" type="line"/>
      <point x="250" y="771" type="line"/>
      <point x="350" y="771" type="line"/>
      <point x="350" y="878" type="line"/>
    </contour>
  </outline>
</glyph>
<glyph name="dotbelowcmb.uc" format="2">
  <advance width="600"/>
  <outline>
    <contour>
      <point x="250" y="-77" type="line"/>
      <point x="250" y="-184" type="line"/>
      <point x="350" y="-184" type="line"/>
      <point x="350" y="-77" type="line"/>
    </contour>
  </outline>
</glyph>
<glyph name="eight.den" format="2">
  <advance width="350"/>
  <outline>
    <contour>
      <point x="170" y="203" type="curve" smooth="yes"/>
      <point x="142" y="203"/>
      <point x="122" y="220"/>
      <point x="122" y="243" type="curve" smooth="yes"/>
      <point x="122" y="267"/>
      <point x="142" y="284"/>
      <point x="170" y="284" type="curve" smooth="yes"/>
      <point x="198" y="284"/>
      <point x="218" y="267"/>
      <point x="218" y="243" type="curve" smooth="yes"/>
      <point x="218" y="220"/>
      <point x="198" y="203"/>
    </contour>
    <contour>
      <point x="120" y="173" type="curve"/>
      <point x="120" y="182" type="line"/>
      <point x="77" y="173"/>
      <point x="43" y="145"/>
      <point x="43" y="97" type="curve" smooth="yes"/>
      <point x="43" y="38"/>
      <point x="93" y="-5"/>
      <point x="170" y="-5" type="curve" smooth="yes"/>
      <point x="247" y="-5"/>
      <point x="297" y="38"/>
      <point x="297" y="97" type="curve" smooth="yes"/>
      <point x="297" y="145"/>
      <point x="263" y="173"/>
      <point x="220" y="182" type="curve"/>
      <point x="220" y="173" type="line"/>
      <point x="256" y="180"/>
      <point x="287" y="204"/>
      <point x="287" y="247" type="curve" smooth="yes"/>
      <point x="287" y="298"/>
      <point x="243" y="338"/>
      <point x="170" y="338" type="curve" smooth="yes"/>
      <point x="97" y="338"/>
      <point x="53" y="298"/>
      <point x="53" y="247" type="curve" smooth="yes"/>
      <point x="53" y="204"/>
      <point x="84" y="180"/>
    </contour>
    <contour>
      <point x="170" y="150" type="curve" smooth="yes"/>
      <point x="203" y="150"/>
      <point x="226" y="131"/>
      <point x="226" y="101" type="curve" smooth="yes"/>
      <point x="226" y="70"/>
      <point x="203" y="49"/>
      <point x="170" y="49" type="curve" smooth="yes"/>
      <point x="137" y="49"/>
      <point x="114" y="70"/>
      <point x="114" y="101" type="curve" smooth="yes"/>
      <point x="114" y="131"/>
      <point x="137" y="150"/>
    </contour>
  </outline>
</glyph>
<glyph name="eight.num" format="2">
  <advance width="350"/>
  <outline>
    <contour>
      <point x="170" y="570" type="curve" smooth="yes"/>
      <point x="142" y="570"/>
      <point x="122" y="587"/>
      <point x="122" y="610" type="curve" smooth="yes"/>
      <point x="122" y="634"/>
      <point x="142" y="651"/>
      <point x="170" y="651" type="curve" smooth="yes"/>
      <point x="198" y="651"/>
      <point x="218" y="634"/>
      <point x="218" y="610" type="curve" smooth="yes"/>
      <point x="218" y="587"/>
      <point x="198" y="570"/>
    </contour>
    <contour>
      <point x="120" y="540" type="curve"/>
      <point x="120" y="549" type="line"/>
      <point x="77" y="540"/>
      <point x="43" y="512"/>
      <point x="43" y="464" type="curve" smooth="yes"/>
      <point x="43" y="405"/>
      <point x="93" y="362"/>
      <point x="170" y="362" type="curve" smooth="yes"/>
      <point x="247" y="362"/>
      <point x="297" y="405"/>
      <point x="297" y="464" type="curve" smooth="yes"/>
      <point x="297" y="512"/>
      <point x="263" y="540"/>
      <point x="220" y="549" type="curve"/>
      <point x="220" y="540" type="line"/>
      <point x="256" y="547"/>
      <point x="287" y="571"/>
      <point x="287" y="614" type="curve" smooth="yes"/>
      <point x="287" y="665"/>
      <point x="243" y="705"/>
      <point x="170" y="705" type="curve" smooth="yes"/>
      <point x="97" y="705"/>
      <point x="53" y="665"/>
      <point x="53" y="614" type="curve" smooth="yes"/>
      <point x="53" y="571"/>
      <point x="84" y="547"/>
    </contour>
    <contour>
      <point x="170" y="517" type="curve" smooth="yes"/>
      <point x="203" y="517"/>
      <point x="226" y="498"/>
      <point x="226" y="468" type="curve" smooth="yes"/>
      <point x="226" y="437"/>
      <point x="203" y="416"/>
      <point x="170" y="416" type="curve" smooth="yes"/>
      <point x="137" y="416"/>
      <point x="114" y="437"/>
      <point x="114" y="468" type="curve" smooth="yes"/>
      <point x="114" y="498"/>
      <point x="137" y="517"/>
    </contour>
  </outline>
</glyph>
<glyph name="emdash.uc" format="2">
  <advance width="600"/>
  <outline>
    <contour>
      <point x="36" y="298" type="line"/>
      <point x="564" y="298" type="line"/>
      <point x="564" y="374" type="line"/>
      <point x="36" y="374" type="line"/>
    </contour>
  </outline>
</glyph>
<glyph name="five.den" format="2">
  <advance width="350"/>
  <outline>
    <contour>
      <point x="51" y="108" type="line"/>
      <point x="53" y="36"/>
      <point x="102" y="-5"/>
      <point x="176" y="-5" type="curve" smooth="yes"/>
      <point x="252" y="-5"/>
      <point x="297" y="41"/>
      <point x="297" y="113" type="curve" smooth="yes"/>
      <point x="297" y="177"/>
      <point x="261" y="226"/>
      <point x="196" y="226" type="curve" smooth="yes"/>
      <point x="149" y="226"/>
      <point x="120" y="198"/>
      <point x="109" y="168" type="curve"/>
      <point x="131" y="168" type="line"/>
      <point x="143" y="314" type="line"/>
      <point x="108" y="273" type="line"/>
      <point x="286" y="273" type="line"/>
      <point x="286" y="333" type="line"/>
      <point x="80" y="333" type="line"/>
      <point x="64" y="143" type="line"/>
      <point x="131" y="138" type="line"/>
      <point x="139" y="158"/>
      <point x="155" y="171"/>
      <point x="177" y="171" type="curve" smooth="yes"/>
      <point x="206" y="171"/>
      <point x="224" y="147"/>
      <point x="224" y="113" type="curve" smooth="yes"/>
      <point x="224" y="75"/>
      <point x="204" y="51"/>
      <point x="175" y="51" type="curve" smooth="yes"/>
      <point x="147" y="51"/>
      <point x="129" y="72"/>
      <point x="128" y="99" type="curve"/>
    </contour>
  </outline>
</glyph>
<glyph name="five.num" format="2">
  <advance width="350"/>
  <outline>
    <contour>
      <point x="51" y="475" type="line"/>
      <point x="53" y="403"/>
      <point x="102" y="362"/>
      <point x="176" y="362" type="curve" smooth="yes"/>
      <point x="252" y="362"/>
      <point x="297" y="408"/>
      <point x="297" y="480" type="curve" smooth="yes"/>
      <point x="297" y="544"/>
      <point x="261" y="593"/>
      <point x="196" y="593" type="curve" smooth="yes"/>
      <point x="149" y="593"/>
      <point x="120" y="565"/>
      <point x="109" y="535" type="curve"/>
      <point x="131" y="535" type="line"/>
      <point x="143" y="681" type="line"/>
      <point x="108" y="640" type="line"/>
      <point x="286" y="640" type="line"/>
      <point x="286" y="700" type="line"/>
      <point x="80" y="700" type="line"/>
      <point x="64" y="510" type="line"/>
      <point x="131" y="505" type="line"/>
      <point x="139" y="525"/>
      <point x="155" y="538"/>
      <point x="177" y="538" type="curve" smooth="yes"/>
      <point x="206" y="538"/>
      <point x="224" y="514"/>
      <point x="224" y="480" type="curve" smooth="yes"/>
      <point x="224" y="442"/>
      <point x="204" y="418"/>
      <point x="175" y="418" type="curve" smooth="yes"/>
      <point x="147" y="418"/>
      <point x="129" y="439"/>
      <point x="128" y="466" type="curve"/>
    </contour>
  </outline>
</glyph>
<glyph name="five.sub" format="2">
  <advance width="350"/>
  <outline>
    <contour>
      <point x="56" y="65" type="line"/>
      <point x="58" y="-7"/>
      <point x="107" y="-48"/>
      <point x="181" y="-48" type="curve" smooth="yes"/>
      <point x="257" y="-48"/>
      <point x="302" y="-2"/>
      <point x="302" y="70" type="curve" smooth="yes"/>
      <point x="302" y="134"/>
      <point x="266" y="183"/>
      <point x="201" y="183" type="curve" smooth="yes"/>
      <point x="154" y="183"/>
      <point x="125" y="155"/>
      <point x="114" y="125" type="curve"/>
      <point x="136" y="125" type="line"/>
      <point x="148" y="271" type="line"/>
      <point x="113" y="230" type="line"/>
      <point x="291" y="230" type="line"/>
      <point x="291" y="290" type="line"/>
      <point x="85" y="290" type="line"/>
      <point x="69" y="100" type="line"/>
      <point x="136" y="95" type="line"/>
      <point x="144" y="115"/>
      <point x="160" y="128"/>
      <point x="182" y="128" type="curve" smooth="yes"/>
      <point x="211" y="128"/>
      <point x="229" y="104"/>
      <point x="229" y="70" type="curve" smooth="yes"/>
      <point x="229" y="32"/>
      <point x="209" y="8"/>
      <point x="180" y="8" type="curve" smooth="yes"/>
      <point x="152" y="8"/>
      <point x="134" y="29"/>
      <point x="133" y="56" type="curve"/>
    </contour>
  </outline>
</glyph>
<glyph name="four.den" format="2">
  <advance width="350"/>
  <outline>
    <contour>
      <point x="257" y="334" type="line"/>
      <point x="181" y="334" type="line"/>
      <point x="33" y="136" type="line"/>
      <point x="33" y="76" type="line"/>
      <point x="313" y="76" type="line"/>
      <point x="313" y="133" type="line"/>
      <point x="61" y="133" type="line"/>
      <point x="81" y="106" type="line"/>
      <point x="237" y="315" type="line"/>
      <point x="188" y="315" type="line"/>
      <point x="188" y="1" type="line"/>
      <point x="257" y="1" type="line"/>
    </contour>
  </outline>
</glyph>
<glyph name="four.num" format="2">
  <advance width="350"/>
  <outline>
    <contour>
      <point x="257" y="701" type="line"/>
      <point x="181" y="701" type="line"/>
      <point x="33" y="503" type="line"/>
      <point x="33" y="443" type="line"/>
      <point x="313" y="443" type="line"/>
      <point x="313" y="500" type="line"/>
      <point x="61" y="500" type="line"/>
      <point x="81" y="473" type="line"/>
      <point x="237" y="682" type="line"/>
      <point x="188" y="682" type="line"/>
      <point x="188" y="368" type="line"/>
      <point x="257" y="368" type="line"/>
    </contour>
  </outline>
</glyph>
<glyph name="four.sup" format="2">
  <advance width="350"/>
  <outline>
    <contour>
      <point x="262" y="801" type="line"/>
      <point x="186" y="801" type="line"/>
      <point x="38" y="603" type="line"/>
      <point x="38" y="543" type="line"/>
      <point x="318" y="543" type="line"/>
      <point x="318" y="600" type="line"/>
      <point x="66" y="600" type="line"/>
      <point x="86" y="573" type="line"/>
      <point x="242" y="782" type="line"/>
      <point x="193" y="782" type="line"/>
      <point x="193" y="468" type="line"/>
      <point x="262" y="468" type="line"/>
    </contour>
  </outline>
</glyph>
<glyph name="four.tab" format="2">
  <advance width="600"/>
  <outline>
    <contour>
      <point x="445" y="700" type="line"/>
      <point x="347" y="700" type="line"/>
      <point x="26" y="261" type="line"/>
      <point x="26" y="183" type="line"/>
      <point x="566" y="183" type="line"/>
      <point x="566" y="260" type="line"/>
      <point x="54" y="260" type="line"/>
      <point x="74" y="196" type="line"/>
      <point x="414" y="661" type="line"/>
      <point x="356" y="661" type="line"/>
      <point x="356" y="0" type="line"/>
      <point x="445" y="0" type="line"/>
    </contour>
  </outline>
</glyph>
<glyph name="greater.tab" format="2">
  <advance width="600"/>
  <outline>
    <contour>
      <point x="528" y="383" type="line"/>
      <point x="528" y="297" type="line"/>
      <point x="72" y="76" type="line"/>
      <point x="72" y="165" type="line"/>
      <point x="466" y="355" type="line"/>
      <point x="466" y="326" type="line"/>
      <point x="72" y="516" type="line"/>
      <point x="72" y="604" type="line"/>
    </contour>
  </outline>
</glyph>
<glyph name="hungarumlautcmb.uc" format="2">
  <advance width="600"/>
  <outline>
    <contour>
      <point x="210" y="892" type="line"/>
      <point x="295" y="892" type="line"/>
      <point x="231" y="771" type="line"/>
      <point x="155" y="771" type="line"/>
    </contour>
    <contour>
      <point x="354" y="892" type="line"/>
      <point x="439" y="892" type="line"/>
      <point x="375" y="771" type="line"/>
      <point x="299" y="771" type="line"/>
    </contour>
  </outline>
</glyph>
<glyph name="lessequal.tab" format="2">
  <advance width="600"/>
  <outline>
    <contour>
      <point x="528" y="0" type="line"/>
      <point x="528" y="76" type="line"/>
      <point x="72" y="76" type="line"/>
      <point x="72" y="0" type="line"/>
    </contour>
    <contour>
      <point x="72" y="428" type="line"/>
      <point x="72" y="342" type="line"/>
      <point x="528" y="151" type="line"/>
      <point x="528" y="236" type="line"/>
      <point x="134" y="400" type="line"/>
      <point x="134" y="371" type="line"/>
      <point x="528" y="535" type="line"/>
      <point x="528" y="619" type="line"/>
    </contour>
  </outline>
</glyph>
<glyph name="macronbelowcmb.uc" format="2">
  <advance width="600"/>
  <outline>
    <contour>
      <point x="163" y="-152" type="line"/>
      <point x="437" y="-152" type="line"/>
      <point x="437" y="-84" type="line"/>
      <point x="163" y="-84" type="line"/>
    </contour>
  </outline>
</glyph>
<glyph name="macroncmb.uc" format="2">
  <advance width="600"/>
  <outline>
    <contour>
      <point x="163" y="776" type="line"/>
      <point x="437" y="776" type="line"/>
      <point x="437" y="844" type="line"/>
      <point x="163" y="844" type="line"/>
    </contour>
  </outline>
</glyph>
<glyph name="multiply.tab" format="2">
  <advance width="600"/>
  <outline>
    <contour>
      <point x="91" y="184" type="line"/>
      <point x="144" y="131" type="line"/>
      <point x="509" y="496" type="line"/>
      <point x="456" y="549" type="line"/>
    </contour>
    <contour>
      <point x="91" y="496" type="line"/>
      <point x="456" y="131" type="line"/>
      <point x="509" y="184" type="line"/>
      <point x="144" y="549" type="line"/>
    </contour>
  </outline>
</glyph>
<glyph name="nine.den" format="2">
  <advance width="350"/>
  <outline>
    <contour>
      <point x="170" y="338" type="curve" smooth="yes"/>
      <point x="90" y="338"/>
      <point x="48" y="286"/>
      <point x="48" y="221" type="curve" smooth="yes"/>
      <point x="48" y="153"/>
      <point x="95" y="112"/>
      <point x="153" y="112" type="curve" smooth="yes"/>
      <point x="201" y="112"/>
      <point x="236" y="139"/>
      <point x="244" y="189" type="curve"/>
      <point x="224" y="189" type="line"/>
      <point x="224" y="158" type="line" smooth="yes"/>
      <point x="224" y="98"/>
      <point x="210" y="50"/>
      <point x="168" y="50" type="curve" smooth="yes"/>
      <point x="144" y="50"/>
      <point x="129" y="64"/>
      <point x="126" y="90" type="curve"/>
      <point x="49" y="101" type="line"/>
      <point x="52" y="36"/>
      <point x="95" y="-5"/>
      <point x="166" y="-5" type="curve" smooth="yes"/>
      <point x="256" y="-5"/>
      <point x="296" y="56"/>
      <point x="296" y="173" type="curve" smooth="yes"/>
      <point x="296" y="228"/>
      <point x="289" y="260"/>
      <point x="271" y="289" type="curve" smooth="yes"/>
      <point x="250" y="320"/>
      <point x="214" y="338"/>
    </contour>
    <contour>
      <point x="170" y="166" type="curve" smooth="yes"/>
      <point x="142" y="166"/>
      <point x="120" y="187"/>
      <point x="120" y="224" type="curve" smooth="yes"/>
      <point x="120" y="261"/>
      <point x="142" y="282"/>
      <point x="170" y="282" type="curve" smooth="yes"/>
      <point x="198" y="282"/>
      <point x="220" y="261"/>
      <point x="220" y="224" type="curve" smooth="yes"/>
      <point x="220" y="187"/>
      <point x="198" y="166"/>
    </contour>
  </outline>
</glyph>
<glyph name="nine.num" format="2">
  <advance width="350"/>
  <outline>
    <contour>
      <point x="172" y="705" type="curve" smooth="yes"/>
      <point x="92" y="705"/>
      <point x="50" y="653"/>
      <point x="50" y="588" type="curve" smooth="yes"/>
      <point x="50" y="520"/>
      <point x="97" y="479"/>
      <point x="155" y="479" type="curve" smooth="yes"/>
      <point x="203" y="479"/>
      <point x="238" y="506"/>
      <point x="246" y="556" type="curve"/>
      <point x="226" y="556" type="line"/>
      <point x="226" y="525" type="line" smooth="yes"/>
      <point x="226" y="465"/>
      <point x="212" y="417"/>
      <point x="170" y="417" type="curve" smooth="yes"/>
      <point x="146" y="417"/>
      <point x="131" y="431"/>
      <point x="128" y="457" type="curve"/>
      <point x="51" y="468" type="line"/>
      <point x="54" y="403"/>
      <point x="97" y="362"/>
      <point x="168" y="362" type="curve" smooth="yes"/>
      <point x="258" y="362"/>
      <point x="298" y="423"/>
      <point x="298" y="540" type="curve" smooth="yes"/>
      <point x="298" y="595"/>
      <point x="291" y="627"/>
      <point x="273" y="656" type="curve" smooth="yes"/>
      <point x="252" y="687"/>
      <point x="216" y="705"/>
    </contour>
    <contour>
      <point x="172" y="533" type="curve" smooth="yes"/>
      <point x="144" y="533"/>
      <point x="122" y="554"/>
      <point x="122" y="591" type="curve" smooth="yes"/>
      <point x="122" y="628"/>
      <point x="144" y="649"/>
      <point x="172" y="649" type="curve" smooth="yes"/>
      <point x="200" y="649"/>
      <point x="222" y="628"/>
      <point x="222" y="591" type="curve" smooth="yes"/>
      <point x="222" y="554"/>
      <point x="200" y="533"/>
    </contour>
  </outline>
</glyph>
<glyph name="one.den" format="2">
  <advance width="350"/>
  <outline>
    <contour>
      <point x="137" y="333" type="line"/>
      <point x="137" y="275"/>
      <point x="121" y="257"/>
      <point x="46" y="257" type="curve"/>
      <point x="46" y="204" type="line"/>
      <point x="172" y="204" type="line"/>
      <point x="130" y="249" type="line"/>
      <point x="130" y="0" type="line"/>
      <point x="202" y="0" type="line"/>
      <point x="202" y="333" type="line"/>
    </contour>
  </outline>
</glyph>
<glyph name="one.sup" format="2">
  <advance width="350"/>
  <outline>
    <contour>
      <point x="142" y="800" type="line"/>
      <point x="142" y="742"/>
      <point x="126" y="724"/>
      <point x="51" y="724" type="curve"/>
      <point x="51" y="671" type="line"/>
      <point x="177" y="671" type="line"/>
      <point x="135" y="716" type="line"/>
      <point x="135" y="467" type="line"/>
      <point x="207" y="467" type="line"/>
      <point x="207" y="800" type="line"/>
    </contour>
  </outline>
</glyph>
<glyph name="percent.tab" format="2">
  <advance width="600"/>
  <outline>
    <contour>
      <point x="30" y="544" type="curve" smooth="yes"/>
      <point x="30" y="447"/>
      <point x="86" y="383"/>
      <point x="161" y="383" type="curve" smooth="yes"/>
      <point x="236" y="383"/>
      <point x="292" y="447"/>
      <point x="292" y="544" type="curve" smooth="yes"/>
      <point x="292" y="641"/>
      <point x="236" y="705"/>
      <point x="161" y="705" type="curve" smooth="yes"/>
      <point x="86" y="705"/>
      <point x="30" y="641"/>
    </contour>
    <contour>
      <point x="101" y="544" type="curve" smooth="yes"/>
      <point x="101" y="603"/>
      <point x="123" y="640"/>
      <point x="161" y="640" type="curve" smooth="yes"/>
      <point x="199" y="640"/>
      <point x="221" y="603"/>
      <point x="221" y="544" type="curve" smooth="yes"/>
      <point x="221" y="485"/>
      <point x="199" y="448"/>
      <point x="161" y="448" type="curve" smooth="yes"/>
      <point x="123" y="448"/>
      <point x="101" y="485"/>
    </contour>
    <contour>
      <point x="141" y="0" type="line"/>
      <point x="537" y="700" type="line"/>
      <point x="459" y="700" type="line"/>
      <point x="63" y="0" type="line"/>
    </contour>
    <contour>
      <point x="308" y="156" type="curve" smooth="yes"/>
      <point x="308" y="59"/>
      <point x="364" y="-5"/>
      <point x="439" y="-5" type="curve" smooth="yes"/>
      <point x="514" y="-5"/>
      <point x="570" y="59"/>
      <point x="570" y="156" type="curve" smooth="yes"/>
      <point x="570" y="253"/>
      <point x="514" y="317"/>
      <point x="439" y="317" type="curve" smooth="yes"/>
      <point x="364" y="317"/>
      <point x="308" y="253"/>
    </contour>
    <contour>
      <point x="379" y="156" type="curve" smooth="yes"/>
      <point x="379" y="215"/>
      <point x="401" y="252"/>
      <point x="439" y="252" type="curve" smooth="yes"/>
      <point x="477" y="252"/>
      <point x="499" y="215"/>
      <point x="499" y="156" type="curve" smooth="yes"/>
      <point x="499" y="97"/>
      <point x="477" y="60"/>
      <point x="439" y="60" type="curve" smooth="yes"/>
      <point x="401" y="60"/>
      <point x="379" y="97"/>
    </contour>
  </outline>
</glyph>
<glyph name="plus.tab" format="2">
  <advance width="600"/>
  <outline>
    <contour>
      <point x="528" y="302" type="line"/>
      <point x="528" y="378" type="line"/>
      <point x="72" y="378" type="line"/>
      <point x="72" y="302" type="line"/>
    </contour>
    <contour>
      <point x="339" y="578" type="line"/>
      <point x="261" y="578" type="line"/>
      <point x="261" y="102" type="line"/>
      <point x="339" y="102" type="line"/>
    </contour>
  </outline>
</glyph>
<glyph name="plusminus.tab" format="2">
  <advance width="600"/>
  <outline>
    <contour>
      <point x="528" y="347" type="line"/>
      <point x="528" y="423" type="line"/>
      <point x="72" y="423" type="line"/>
      <point x="72" y="347" type="line"/>
    </contour>
    <contour>
      <point x="339" y="613" type="line"/>
      <point x="261" y="613" type="line"/>
      <point x="261" y="157" type="line"/>
      <point x="339" y="157" type="line"/>
    </contour>
    <contour>
      <point x="528" y="0" type="line"/>
      <point x="528" y="76" type="line"/>
      <point x="72" y="76" type="line"/>
      <point x="72" y="0" type="line"/>
    </contour>
  </outline>
</glyph>
<glyph name="seven.den" format="2">
  <advance width="350"/>
  <outline>
    <contour>
      <point x="61" y="333" type="line"/>
      <point x="61" y="207" type="line"/>
      <point x="129" y="207" type="line"/>
      <point x="129" y="303" type="line"/>
      <point x="104" y="273" type="line"/>
      <point x="276" y="273" type="line"/>
      <point x="255" y="311" type="line"/>
      <point x="191" y="214"/>
      <point x="126" y="113"/>
      <point x="121" y="0" type="curve"/>
      <point x="198" y="0" type="line"/>
      <point x="205" y="111"/>
      <point x="257" y="202"/>
      <point x="311" y="294" type="curve"/>
      <point x="311" y="333" type="line"/>
    </contour>
  </outline>
</glyph>
<glyph name="seven.num" format="2">
  <advance width="350"/>
  <outline>
    <contour>
      <point x="61" y="700" type="line"/>
      <point x="61" y="574" type="line"/>
      <point x="129" y="574" type="line"/>
      <point x="129" y="670" type="line"/>
      <point x="104" y="640" type="line"/>
      <point x="276" y="640" type="line"/>
      <point x="255" y="678" type="line"/>
      <point x="191" y="581"/>
      <point x="126" y="480"/>
      <point x="121" y="367" type="curve"/>
      <point x="198" y="367" type="line"/>
      <point x="205" y="478"/>
      <point x="257" y="569"/>
      <point x="311" y="661" type="curve"/>
      <point x="311" y="700" type="line"/>
    </contour>
  </outline>
</glyph>
<glyph name="seven.tab" format="2">
  <advance width="600"/>
  <outline>
    <contour>
      <point x="63" y="700" type="line"/>
      <point x="63" y="470" type="line"/>
      <point x="154" y="470" type="line"/>
      <point x="154" y="652" type="line"/>
      <point x="124" y="622" type="line"/>
      <point x="543" y="622" type="line"/>
      <point x="515" y="668" type="line"/>
      <point x="375" y="462"/>
      <point x="196" y="237"/>
      <point x="187" y="0" type="curve"/>
      <point x="284" y="0" type="line"/>
      <point x="293" y="233"/>
      <point x="455" y="438"/>
      <point x="586" y="632" type="curve"/>
      <point x="586" y="700" type="line"/>
    </contour>
  </outline>
</glyph>
<glyph name="six.den" format="2">
  <advance width="350"/>
  <outline>
    <contour>
      <point x="166" y="-5" type="curve" smooth="yes"/>
      <point x="246" y="-5"/>
      <point x="288" y="49"/>
      <point x="288" y="111" type="curve" smooth="yes"/>
      <point x="288" y="179"/>
      <point x="244" y="222"/>
      <point x="186" y="222" type="curve" smooth="yes"/>
      <point x="138" y="222"/>
      <point x="102" y="193"/>
      <point x="92" y="145" type="curve"/>
      <point x="113" y="145" type="line"/>
      <point x="113" y="174" type="line" smooth="yes"/>
      <point x="113" y="243"/>
      <point x="144" y="279"/>
      <point x="177" y="279" type="curve" smooth="yes"/>
      <point x="198" y="279"/>
      <point x="212" y="266"/>
      <point x="212" y="245" type="curve"/>
      <point x="283" y="237" type="line"/>
      <point x="281" y="296"/>
      <point x="245" y="338"/>
      <point x="178" y="338" type="curve" smooth="yes"/>
      <point x="95" y="338"/>
      <point x="40" y="267"/>
      <point x="40" y="157" type="curve" smooth="yes"/>
      <point x="40" y="106"/>
      <point x="48" y="71"/>
      <point x="66" y="44" type="curve" smooth="yes"/>
      <point x="88" y="12"/>
      <point x="121" y="-5"/>
    </contour>
    <contour>
      <point x="166" y="50" type="curve" smooth="yes"/>
      <point x="135" y="50"/>
      <point x="116" y="76"/>
      <point x="116" y="109" type="curve" smooth="yes"/>
      <point x="116" y="142"/>
      <point x="135" y="168"/>
      <point x="166" y="168" type="curve" smooth="yes"/>
      <point x="198" y="168"/>
      <point x="216" y="142"/>
      <point x="216" y="109" type="curve" smooth="yes"/>
      <point x="216" y="76"/>
      <point x="198" y="50"/>
    </contour>
  </outline>
</glyph>
<glyph name="six.num" format="2">
  <advance width="350"/>
  <outline>
    <contour>
      <point x="166" y="362" type="curve" smooth="yes"/>
      <point x="246" y="362"/>
      <point x="288" y="416"/>
      <point x="288" y="478" type="curve" smooth="yes"/>
      <point x="288" y="546"/>
      <point x="244" y="589"/>
      <point x="186" y="589" type="curve" smooth="yes"/>
      <point x="138" y="589"/>
      <point x="102" y="560"/>
      <point x="92" y="512" type="curve"/>
      <point x="113" y="512" type="line"/>
      <point x="113" y="541" type="line" smooth="yes"/>
      <point x="113" y="610"/>
      <point x="144" y="646"/>
      <point x="177" y="646" type="curve" smooth="yes"/>
      <point x="198" y="646"/>
      <point x="212" y="633"/>
      <point x="212" y="612" type="curve"/>
      <point x="283" y="604" type="line"/>
      <point x="281" y="663"/>
      <point x="245" y="705"/>
      <point x="178" y="705" type="curve" smooth="yes"/>
      <point x="95" y="705"/>
      <point x="40" y="634"/>
      <point x="40" y="524" type="curve" smooth="yes"/>
      <point x="40" y="473"/>
      <point x="48" y="438"/>
      <point x="66" y="411" type="curve" smooth="yes"/>
      <point x="88" y="379"/>
      <point x="121" y="362"/>
    </contour>
    <contour>
      <point x="166" y="417" type="curve" smooth="yes"/>
      <point x="135" y="417"/>
      <point x="116" y="443"/>
      <point x="116" y="476" type="curve" smooth="yes"/>
      <point x="116" y="509"/>
      <point x="135" y="535"/>
      <point x="166" y="535" type="curve" smooth="yes"/>
      <point x="198" y="535"/>
      <point x="216" y="509"/>
      <point x="216" y="476" type="curve" smooth="yes"/>
      <point x="216" y="443"/>
      <point x="198" y="417"/>
    </contour>
  </outline>
</glyph>
<glyph name="six.sub" format="2">
  <advance width="350"/>
  <outline>
    <contour>
      <point x="171" y="-48" type="curve" smooth="yes"/>
      <point x="251" y="-48"/>
      <point x="293" y="6"/>
      <point x="293" y="68" type="curve" smooth="yes"/>
      <point x="293" y="136"/>
      <point x="249" y="179"/>
      <point x="191" y="179" type="curve" smooth="yes"/>
      <point x="143" y="179"/>
      <point x="107" y="150"/>
      <point x="97" y="102" type="curve"/>
      <point x="118" y="102" type="line"/>
      <point x="118" y="131" type="line" smooth="yes"/>
      <point x="118" y="200"/>
      <point x="149" y="236"/>
      <point x="182" y="236" type="curve" smooth="yes"/>
      <point x="203" y="236"/>
      <point x="217" y="223"/>
      <point x="217" y="202" type="curve"/>
      <point x="288" y="194" type="line"/>
      <point x="286" y="253"/>
      <point x="250" y="295"/>
      <point x="183" y="295" type="curve" smooth="yes"/>
      <point x="100" y="295"/>
      <point x="45" y="224"/>
      <point x="45" y="114" type="curve" smooth="yes"/>
      <point x="45" y="63"/>
      <point x="53" y="28"/>
      <point x="71" y="1" type="curve" smooth="yes"/>
      <point x="93" y="-31"/>
      <point x="126" y="-48"/>
    </contour>
    <contour>
      <point x="171" y="7" type="curve" smooth="yes"/>
      <point x="140" y="7"/>
      <point x="121" y="33"/>
      <point x="121" y="66" type="curve" smooth="yes"/>
      <point x="121" y="99"/>
      <point x="140" y="125"/>
      <point x="171" y="125" type="curve" smooth="yes"/>
      <point x="203" y="125"/>
      <point x="221" y="99"/>
      <point x="221" y="66" type="curve" smooth="yes"/>
      <point x="221" y="33"/>
      <point x="203" y="7"/>
    </contour>
  </outline>
</glyph>
<glyph name="six.sup" format="2">
  <advance width="350"/>
  <outline>
    <contour>
      <point x="171" y="462" type="curve" smooth="yes"/>
      <point x="251" y="462"/>
      <point x="293" y="516"/>
      <point x="293" y="578" type="curve" smooth="yes"/>
      <point x="293" y="646"/>
      <point x="249" y="689"/>
      <point x="191" y="689" type="curve" smooth="yes"/>
      <point x="143" y="689"/>
      <point x="107" y="660"/>
      <point x="97" y="612" type="curve"/>
      <point x="118" y="612" type="line"/>
      <point x="118" y="641" type="line" smooth="yes"/>
      <point x="118" y="710"/>
      <point x="149" y="746"/>
      <point x="182" y="746" type="curve" smooth="yes"/>
      <point x="203" y="746"/>
      <point x="217" y="733"/>
      <point x="217" y="712" type="curve"/>
      <point x="288" y="704" type="line"/>
      <point x="286" y="763"/>
      <point x="250" y="805"/>
      <point x="183" y="805" type="curve" smooth="yes"/>
      <point x="100" y="805"/>
      <point x="45" y="734"/>
      <point x="45" y="624" type="curve" smooth="yes"/>
      <point x="45" y="573"/>
      <point x="53" y="538"/>
      <point x="71" y="511" type="curve" smooth="yes"/>
      <point x="93" y="479"/>
      <point x="126" y="462"/>
    </contour>
    <contour>
      <point x="171" y="517" type="curve" smooth="yes"/>
      <point x="140" y="517"/>
      <point x="121" y="543"/>
      <point x="121" y="576" type="curve" smooth="yes"/>
      <point x="121" y="609"/>
      <point x="140" y="635"/>
      <point x="171" y="635" type="curve" smooth="yes"/>
      <point x="203" y="635"/>
      <point x="221" y="609"/>
      <point x="221" y="576" type="curve" smooth="yes"/>
      <point x="221" y="543"/>
      <point x="203" y="517"/>
    </contour>
  </outline>
</glyph>
<glyph name="three.den" format="2">
  <advance width="350"/>
  <outline>
    <contour>
      <point x="41" y="110" type="line"/>
      <point x="36" y="34"/>
      <point x="93" y="-4"/>
      <point x="167" y="-4" type="curve" smooth="yes"/>
      <point x="244" y="-4"/>
      <point x="292" y="38"/>
      <point x="292" y="98" type="curve" smooth="yes"/>
      <point x="292" y="142"/>
      <point x="266" y="169"/>
      <point x="224" y="177" type="curve"/>
      <point x="224" y="173" type="line"/>
      <point x="253" y="180"/>
      <point x="284" y="199"/>
      <point x="284" y="244" type="curve" smooth="yes"/>
      <point x="284" y="294"/>
      <point x="244" y="339"/>
      <point x="167" y="339" type="curve" smooth="yes"/>
      <point x="95" y="339"/>
      <point x="39" y="298"/>
      <point x="45" y="227" type="curve"/>
      <point x="117" y="231" type="line"/>
      <point x="114" y="261"/>
      <point x="135" y="282"/>
      <point x="166" y="282" type="curve" smooth="yes"/>
      <point x="196" y="282"/>
      <point x="212" y="261"/>
      <point x="212" y="240" type="curve" smooth="yes"/>
      <point x="212" y="216"/>
      <point x="193" y="200"/>
      <point x="166" y="200" type="curve" smooth="yes"/>
      <point x="140" y="200" type="line"/>
      <point x="140" y="145" type="line"/>
      <point x="166" y="145" type="line" smooth="yes"/>
      <point x="202" y="145"/>
      <point x="220" y="127"/>
      <point x="220" y="101" type="curve" smooth="yes"/>
      <point x="220" y="72"/>
      <point x="200" y="53"/>
      <point x="167" y="53" type="curve" smooth="yes"/>
      <point x="130" y="53"/>
      <point x="110" y="77"/>
      <point x="114" y="105" type="curve"/>
    </contour>
  </outline>
</glyph>
<glyph name="three.num" format="2">
  <advance width="350"/>
  <outline>
    <contour>
      <point x="42" y="477" type="line"/>
      <point x="37" y="401"/>
      <point x="94" y="363"/>
      <point x="168" y="363" type="curve" smooth="yes"/>
      <point x="245" y="363"/>
      <point x="293" y="405"/>
      <point x="293" y="465" type="curve" smooth="yes"/>
      <point x="293" y="509"/>
      <point x="267" y="536"/>
      <point x="225" y="544" type="curve"/>
      <point x="225" y="540" type="line"/>
      <point x="254" y="547"/>
      <point x="285" y="566"/>
      <point x="285" y="611" type="curve" smooth="yes"/>
      <point x="285" y="661"/>
      <point x="245" y="706"/>
      <point x="168" y="706" type="curve" smooth="yes"/>
      <point x="96" y="706"/>
      <point x="40" y="665"/>
      <point x="46" y="594" type="curve"/>
      <point x="118" y="598" type="line"/>
      <point x="115" y="628"/>
      <point x="136" y="649"/>
      <point x="167" y="649" type="curve" smooth="yes"/>
      <point x="197" y="649"/>
      <point x="213" y="628"/>
      <point x="213" y="607" type="curve" smooth="yes"/>
      <point x="213" y="583"/>
      <point x="194" y="567"/>
      <point x="167" y="567" type="curve" smooth="yes"/>
      <point x="141" y="567" type="line"/>
      <point x="141" y="512" type="line"/>
      <point x="167" y="512" type="line" smooth="yes"/>
      <point x="203" y="512"/>
      <point x="221" y="494"/>
      <point x="221" y="468" type="curve" smooth="yes"/>
      <point x="221" y="439"/>
      <point x="201" y="420"/>
      <point x="168" y="420" type="curve" smooth="yes"/>
      <point x="131" y="420"/>
      <point x="111" y="444"/>
      <point x="115" y="472" type="curve"/>
    </contour>
  </outline>
</glyph>
<glyph name="three.sub" format="2">
  <advance width="350"/>
  <outline>
    <contour>
      <point x="47" y="67" type="line"/>
      <point x="42" y="-9"/>
      <point x="99" y="-47"/>
      <point x="173" y="-47" type="curve" smooth="yes"/>
      <point x="250" y="-47"/>
      <point x="298" y="-5"/>
      <point x="298" y="55" type="curve" smooth="yes"/>
      <point x="298" y="99"/>
      <point x="272" y="126"/>
      <point x="230" y="134" type="curve"/>
      <point x="230" y="130" type="line"/>
      <point x="259" y="137"/>
      <point x="290" y="156"/>
      <point x="290" y="201" type="curve" smooth="yes"/>
      <point x="290" y="251"/>
      <point x="250" y="296"/>
      <point x="173" y="296" type="curve" smooth="yes"/>
      <point x="101" y="296"/>
      <point x="45" y="255"/>
      <point x="51" y="184" type="curve"/>
      <point x="123" y="188" type="line"/>
      <point x="120" y="218"/>
      <point x="141" y="239"/>
      <point x="172" y="239" type="curve" smooth="yes"/>
      <point x="202" y="239"/>
      <point x="218" y="218"/>
      <point x="218" y="197" type="curve" smooth="yes"/>
      <point x="218" y="173"/>
      <point x="199" y="157"/>
      <point x="172" y="157" type="curve" smooth="yes"/>
      <point x="146" y="157" type="line"/>
      <point x="146" y="102" type="line"/>
      <point x="172" y="102" type="line" smooth="yes"/>
      <point x="208" y="102"/>
      <point x="226" y="84"/>
      <point x="226" y="58" type="curve" smooth="yes"/>
      <point x="226" y="29"/>
      <point x="206" y="10"/>
      <point x="173" y="10" type="curve" smooth="yes"/>
      <point x="136" y="10"/>
      <point x="116" y="34"/>
      <point x="120" y="62" type="curve"/>
    </contour>
  </outline>
</glyph>
<glyph name="two.den" format="2">
  <advance width="350"/>
  <outline>
    <contour>
      <point x="287" y="1" type="line"/>
      <point x="287" y="62" type="line"/>
      <point x="93" y="62" type="line"/>
      <point x="98" y="24" type="line"/>
      <point x="212" y="112"/>
      <point x="285" y="160"/>
      <point x="285" y="231" type="curve" smooth="yes"/>
      <point x="285" y="282"/>
      <point x="253" y="339"/>
      <point x="166" y="339" type="curve" smooth="yes"/>
      <point x="84" y="339"/>
      <point x="46" y="287"/>
      <point x="46" y="237" type="curve" smooth="yes"/>
      <point x="46" y="221"/>
      <point x="50" y="207"/>
      <point x="58" y="194" type="curve"/>
      <point x="126" y="202" type="line"/>
      <point x="119" y="213"/>
      <point x="117" y="223"/>
      <point x="117" y="232" type="curve" smooth="yes"/>
      <point x="117" y="258"/>
      <point x="135" y="279"/>
      <point x="164" y="279" type="curve" smooth="yes"/>
      <point x="193" y="279"/>
      <point x="212" y="260"/>
      <point x="212" y="230" type="curve" smooth="yes"/>
      <point x="212" y="185"/>
      <point x="166" y="156"/>
      <point x="49" y="60" type="curve"/>
      <point x="49" y="1" type="line"/>
    </contour>
  </outline>
</glyph>
<glyph name="two.num" format="2">
  <advance width="350"/>
  <outline>
    <contour>
      <point x="286" y="368" type="line"/>
      <point x="286" y="429" type="line"/>
      <point x="92" y="429" type="line"/>
      <point x="97" y="391" type="line"/>
      <point x="211" y="479"/>
      <point x="284" y="527"/>
      <point x="284" y="598" type="curve" smooth="yes"/>
      <point x="284" y="649"/>
      <point x="252" y="706"/>
      <point x="165" y="706" type="curve" smooth="yes"/>
      <point x="83" y="706"/>
      <point x="45" y="654"/>
      <point x="45" y="604" type="curve" smooth="yes"/>
      <point x="45" y="588"/>
      <point x="49" y="574"/>
      <point x="57" y="561" type="curve"/>
      <point x="125" y="569" type="line"/>
      <point x="118" y="580"/>
      <point x="116" y="590"/>
      <point x="116" y="599" type="curve" smooth="yes"/>
      <point x="116" y="625"/>
      <point x="134" y="646"/>
      <point x="163" y="646" type="curve" smooth="yes"/>
      <point x="192" y="646"/>
      <point x="211" y="627"/>
      <point x="211" y="597" type="curve" smooth="yes"/>
      <point x="211" y="552"/>
      <point x="165" y="523"/>
      <point x="48" y="427" type="curve"/>
      <point x="48" y="368" type="line"/>
    </contour>
  </outline>
</glyph>
<glyph name="two.sub" format="2">
  <advance width="350"/>
  <outline>
    <contour>
      <point x="291" y="-42" type="line"/>
      <point x="291" y="19" type="line"/>
      <point x="97" y="19" type="line"/>
      <point x="102" y="-19" type="line"/>
      <point x="216" y="69"/>
      <point x="289" y="117"/>
      <point x="289" y="188" type="curve" smooth="yes"/>
      <point x="289" y="239"/>
      <point x="257" y="296"/>
      <point x="170" y="296" type="curve" smooth="yes"/>
      <point x="88" y="296"/>
      <point x="50" y="244"/>
      <point x="50" y="194" type="curve" smooth="yes"/>
      <point x="50" y="178"/>
      <point x="54" y="164"/>
      <point x="62" y="151" type="curve"/>
      <point x="130" y="159" type="line"/>
      <point x="123" y="170"/>
      <point x="121" y="180"/>
      <point x="121" y="189" type="curve" smooth="yes"/>
      <point x="121" y="215"/>
      <point x="139" y="236"/>
      <point x="168" y="236" type="curve" smooth="yes"/>
      <point x="197" y="236"/>
      <point x="216" y="217"/>
      <point x="216" y="187" type="curve" smooth="yes"/>
      <point x="216" y="142"/>
      <point x="170" y="113"/>
      <point x="53" y="17" type="curve"/>
      <point x="53" y="-42" type="line"/>
    </contour>
  </outline>
</glyph>
<glyph name="zero.den" format="2">
  <advance width="350"/>
  <outline>
    <contour>
      <point x="170" y="338" type="curve" smooth="yes"/>
      <point x="90" y="338"/>
      <point x="41" y="272"/>
      <point x="41" y="166" type="curve" smooth="yes"/>
      <point x="41" y="61"/>
      <point x="90" y="-5"/>
      <point x="170" y="-5" type="curve" smooth="yes"/>
      <point x="249" y="-5"/>
      <point x="299" y="61"/>
      <point x="299" y="166" type="curve" smooth="yes"/>
      <point x="299" y="272"/>
      <point x="249" y="338"/>
    </contour>
    <contour>
      <point x="170" y="56" type="curve" smooth="yes"/>
      <point x="132" y="56"/>
      <point x="114" y="97"/>
      <point x="114" y="166" type="curve" smooth="yes"/>
      <point x="114" y="236"/>
      <point x="132" y="277"/>
      <point x="170" y="277" type="curve" smooth="yes"/>
      <point x="207" y="277"/>
      <point x="226" y="236"/>
      <point x="226" y="166" type="curve" smooth="yes"/>
      <point x="226" y="97"/>
      <point x="207" y="56"/>
    </contour>
  </outline>
</glyph>
<glyph name="zero.num" format="2">
  <advance width="350"/>
  <outline>
    <contour>
      <point x="170" y="705" type="curve" smooth="yes"/>
      <point x="90" y="705"/>
      <point x="41" y="639"/>
      <point x="41" y="533" type="curve" smooth="yes"/>
      <point x="41" y="428"/>
      <point x="90" y="362"/>
      <point x="170" y="362" type="curve" smooth="yes"/>
      <point x="249" y="362"/>
      <point x="299" y="428"/>
      <point x="299" y="533" type="curve" smooth="yes"/>
      <point x="299" y="639"/>
      <point x="249" y="705"/>
    </contour>
    <contour>
      <point x="170" y="423" type="curve" smooth="yes"/>
      <point x="132" y="423"/>
      <point x="114" y="464"/>
      <point x="114" y="533" type="curve" smooth="yes"/>
      <point x="114" y="603"/>
      <point x="132" y="644"/>
      <point x="170" y="644" type="curve" smooth="yes"/>
      <point x="207" y="644"/>
      <point x="226" y="603"/>
      <point x="226" y="533" type="curve" smooth="yes"/>
      <point x="226" y="464"/>
      <point x="207" y="423"/>
    </contour>
  </outline>
</glyph>
<glyph name="zero.sub" format="2">
  <advance width="350"/>
  <outline>
    <contour>
      <point x="175" y="295" type="curve" smooth="yes"/>
      <point x="95" y="295"/>
      <point x="46" y="229"/>
      <point x="46" y="123" type="curve" smooth="yes"/>
      <point x="46" y="18"/>
      <point x="95" y="-48"/>
      <point x="175" y="-48" type="curve" smooth="yes"/>
      <point x="254" y="-48"/>
      <point x="304" y="18"/>
      <point x="304" y="123" type="curve" smooth="yes"/>
      <point x="304" y="229"/>
      <point x="254" y="295"/>
    </contour>
    <contour>
      <point x="175" y="13" type="curve" smooth="yes"/>
      <point x="137" y="13"/>
      <point x="119" y="54"/>
      <point x="119" y="123" type="curve" smooth="yes"/>
      <point x="119" y="193"/>
      <point x="137" y="234"/>
      <point x="175" y="234" type="curve" smooth="yes"/>
      <point x="212" y="234"/>
      <point x="231" y="193"/>
      <point x="231" y="123" type="curve" smooth="yes"/>
      <point x="231" y="54"/>
      <point x="212" y="13"/>
    </contour>
  </outline>
</glyph>
<glyph name="zero.sup" format="2">
  <advance width="350"/>
  <outline>
    <contour>
      <point x="175" y="805" type="curve" smooth="yes"/>
      <point x="95" y="805"/>
      <point x="46" y="739"/>
      <point x="46" y="633" type="curve" smooth="yes"/>
      <point x="46" y="528"/>
      <point x="95" y="462"/>
      <point x="175" y="462" type="curve" smooth="yes"/>
      <point x="254" y="462"/>
      <point x="304" y="528"/>
      <point x="304" y="633" type="curve" smooth="yes"/>
      <point x="304" y="739"/>
      <point x="254" y="805"/>
    </contour>
    <contour>
      <point x="175" y="523" type="curve" smooth="yes"/>
      <point x="137" y="523"/>
      <point x="119" y="564"/>
      <point x="119" y="633" type="curve" smooth="yes"/>
      <point x="119" y="703"/>
      <point x="137" y="744"/>
      <point x="175" y="744" type="curve" smooth="yes"/>
      <point x="212" y="744"/>
      <point x="231" y="703"/>
      <point x="231" y="633" type="curve" smooth="yes"/>
      <point x="231" y="564"/>
      <point x="212" y="523"/>
    </contour>
  </outline>
</glyph>
